<mxfile host="app.diagrams.net" agent="Mozilla/5.0 (Macintosh; Intel Mac OS X 10.15; rv:129.0) Gecko/20100101 Firefox/129.0" version="24.7.6" pages="4">
  <diagram id="69nXhCMtZoiXK2Dm0WQ1" name="Parking Lot - Class Diagram">
    <mxGraphModel dx="1674" dy="770" grid="1" gridSize="10" guides="1" tooltips="1" connect="1" arrows="1" fold="1" page="1" pageScale="1" pageWidth="827" pageHeight="1169" math="0" shadow="0">
      <root>
        <mxCell id="0" />
        <mxCell id="1" parent="0" />
        <mxCell id="xy7MtwKxT0VkMzhvmd6g-1" value="Parking Lot System" style="text;strokeColor=none;fillColor=none;html=1;fontSize=24;fontStyle=1;verticalAlign=middle;align=center;" parent="1" vertex="1">
          <mxGeometry x="70" y="30" width="670" height="40" as="geometry" />
        </mxCell>
        <mxCell id="xy7MtwKxT0VkMzhvmd6g-4" value="&lt;span style=&quot;caret-color: rgb(255, 255, 255); font-size: 17px; letter-spacing: 0.16200000047683716px; text-align: left;&quot;&gt;1) The parking lot has multiple levels. Each level has multiple rows of spots. &lt;br&gt;2) The parking lot can park motorcycles, cars, and buses. &lt;br&gt;3) The parking lot has motorcycle spots, compact spots, and large spots.&lt;br&gt;&amp;nbsp;4) A motorcycle can park in any spot. &lt;br&gt;5) A car can park in either a single compact spot or a single large spot. &lt;br&gt;6) A bus can park in five large spots that are consecutive and within the same row. It cannot park in small spots. In the below implementation, we have created an abstract class Vehicle, from which Car, Bus, and Motorcycle inherit. To handle the different parking spot sizes, we have just one class ParkingSpot which has a member variable indicating the size.&amp;nbsp;&lt;/span&gt;" style="rounded=0;whiteSpace=wrap;html=1;labelBackgroundColor=#FFFFFF;fontColor=#000000;labelBorderColor=none;fontFamily=Verdana;" parent="1" vertex="1">
          <mxGeometry x="60" y="110" width="650" height="370" as="geometry" />
        </mxCell>
        <mxCell id="xy7MtwKxT0VkMzhvmd6g-5" value="&lt;b&gt;Requirement Collection&lt;br&gt;&lt;/b&gt;Big parking lots 10k - 30k&lt;b&gt;&lt;br&gt;&lt;/b&gt;&lt;div style=&quot;text-align: left;&quot;&gt;&lt;ol&gt;&lt;li&gt;4 - Entrances and 4 - Exits&lt;br&gt;&lt;/li&gt;&lt;li&gt;spot should be nearest to the customer from however&amp;nbsp;&lt;/li&gt;&lt;li&gt;Limit - Capacity&lt;/li&gt;&lt;li&gt;Different Types of Parking Spots&lt;/li&gt;&lt;ol&gt;&lt;li&gt;Handicapped&lt;/li&gt;&lt;li&gt;Compact Vehical&lt;/li&gt;&lt;li&gt;Motorcycle&lt;/li&gt;&lt;/ol&gt;&lt;li&gt;Parking Fee&amp;nbsp;&lt;/li&gt;&lt;ol&gt;&lt;li&gt;Cash&lt;/li&gt;&lt;li&gt;Credit/Cards&lt;/li&gt;&lt;/ol&gt;&lt;li&gt;Monitoring System&lt;/li&gt;&lt;ol&gt;&lt;li&gt;How many entering and exiting.&lt;/li&gt;&lt;li&gt;Observer Design patterns - Logger&lt;/li&gt;&lt;/ol&gt;&lt;li&gt;Tariff Calculator&lt;/li&gt;&lt;/ol&gt;&lt;/div&gt;" style="rounded=0;whiteSpace=wrap;html=1;labelBackgroundColor=#FFFFFF;labelBorderColor=none;fontFamily=Verdana;fontColor=#000000;" parent="1" vertex="1">
          <mxGeometry x="60" y="530" width="450" height="300" as="geometry" />
        </mxCell>
        <mxCell id="xy7MtwKxT0VkMzhvmd6g-6" value="&lt;br&gt;&lt;ol&gt;&lt;li&gt;Creational&amp;nbsp;&lt;/li&gt;&lt;li&gt;Top-down design - not&amp;nbsp;&lt;/li&gt;&lt;li&gt;&lt;b&gt;Bottom Design - recommended&lt;/b&gt;&lt;/li&gt;&lt;/ol&gt;" style="whiteSpace=wrap;html=1;labelBackgroundColor=#FFFFFF;labelBorderColor=none;fontFamily=Verdana;fontColor=#000000;" parent="1" vertex="1">
          <mxGeometry x="540" y="530" width="270" height="110" as="geometry" />
        </mxCell>
        <mxCell id="xy7MtwKxT0VkMzhvmd6g-7" value="&lt;b&gt;Actors&lt;/b&gt;&lt;br&gt;&lt;ol&gt;&lt;li&gt;Parking Lot System&lt;/li&gt;&lt;li&gt;Entry / Exit terminal&lt;/li&gt;&lt;ol&gt;&lt;li&gt;Printers&lt;/li&gt;&lt;li&gt;Payment Processor&lt;/li&gt;&lt;/ol&gt;&lt;li&gt;Parking Spot&lt;/li&gt;&lt;li&gt;Ticket&lt;/li&gt;&lt;li&gt;Database&lt;/li&gt;&lt;li&gt;Monitoring Systems&lt;/li&gt;&lt;/ol&gt;" style="rounded=0;whiteSpace=wrap;html=1;labelBackgroundColor=#FFFFFF;labelBorderColor=none;fontFamily=Verdana;fontColor=#000000;" parent="1" vertex="1">
          <mxGeometry x="540" y="670" width="260" height="160" as="geometry" />
        </mxCell>
        <mxCell id="xy7MtwKxT0VkMzhvmd6g-9" value="Enum - Type of Parking Spot&lt;br&gt;&lt;div style=&quot;text-align: left;&quot;&gt;&lt;br&gt;&lt;/div&gt;&lt;div style=&quot;text-align: left;&quot;&gt;enum ParkingSpot{&lt;/div&gt;&lt;blockquote style=&quot;margin: 0 0 0 40px; border: none; padding: 0px;&quot;&gt;&lt;div style=&quot;text-align: left;&quot;&gt;Handicapped,&lt;/div&gt;&lt;div style=&quot;text-align: left;&quot;&gt;Compact,&lt;/div&gt;&lt;div style=&quot;text-align: left;&quot;&gt;large,&lt;/div&gt;&lt;div style=&quot;text-align: left;&quot;&gt;motorcycle&lt;/div&gt;&lt;/blockquote&gt;&lt;div style=&quot;text-align: left;&quot;&gt;&lt;span style=&quot;text-align: center;&quot;&gt;}&lt;/span&gt;&lt;/div&gt;" style="whiteSpace=wrap;html=1;labelBackgroundColor=#FFFFFF;labelBorderColor=none;fontFamily=Verdana;fontColor=#000000;" parent="1" vertex="1">
          <mxGeometry x="70" y="860" width="200" height="220" as="geometry" />
        </mxCell>
        <mxCell id="xy7MtwKxT0VkMzhvmd6g-11" value="Parking Spot" style="swimlane;fontStyle=0;childLayout=stackLayout;horizontal=1;startSize=26;fillColor=none;horizontalStack=0;resizeParent=1;resizeParentMax=0;resizeLast=0;collapsible=1;marginBottom=0;labelBackgroundColor=#FFFFFF;labelBorderColor=none;fontFamily=Verdana;fontColor=#000000;" parent="1" vertex="1">
          <mxGeometry x="370" y="860" width="140" height="78" as="geometry" />
        </mxCell>
        <mxCell id="xy7MtwKxT0VkMzhvmd6g-12" value="+ id: Number" style="text;strokeColor=none;fillColor=none;align=left;verticalAlign=top;spacingLeft=4;spacingRight=4;overflow=hidden;rotatable=0;points=[[0,0.5],[1,0.5]];portConstraint=eastwest;labelBackgroundColor=#FFFFFF;labelBorderColor=none;fontFamily=Verdana;fontColor=#000000;" parent="xy7MtwKxT0VkMzhvmd6g-11" vertex="1">
          <mxGeometry y="26" width="140" height="26" as="geometry" />
        </mxCell>
        <mxCell id="xy7MtwKxT0VkMzhvmd6g-13" value="+ reserve: Boolean" style="text;strokeColor=none;fillColor=none;align=left;verticalAlign=top;spacingLeft=4;spacingRight=4;overflow=hidden;rotatable=0;points=[[0,0.5],[1,0.5]];portConstraint=eastwest;labelBackgroundColor=#FFFFFF;labelBorderColor=none;fontFamily=Verdana;fontColor=#000000;" parent="xy7MtwKxT0VkMzhvmd6g-11" vertex="1">
          <mxGeometry y="52" width="140" height="26" as="geometry" />
        </mxCell>
        <mxCell id="xy7MtwKxT0VkMzhvmd6g-25" style="edgeStyle=orthogonalEdgeStyle;rounded=0;orthogonalLoop=1;jettySize=auto;html=1;exitX=0.5;exitY=0;exitDx=0;exitDy=0;entryX=0.471;entryY=0.962;entryDx=0;entryDy=0;entryPerimeter=0;fontFamily=Verdana;fontColor=#000000;" parent="1" source="xy7MtwKxT0VkMzhvmd6g-15" target="xy7MtwKxT0VkMzhvmd6g-13" edge="1">
          <mxGeometry relative="1" as="geometry" />
        </mxCell>
        <mxCell id="xy7MtwKxT0VkMzhvmd6g-15" value="HandiCapped" style="swimlane;fontStyle=0;childLayout=stackLayout;horizontal=1;startSize=26;fillColor=none;horizontalStack=0;resizeParent=1;resizeParentMax=0;resizeLast=0;collapsible=1;marginBottom=0;labelBackgroundColor=#FFFFFF;labelBorderColor=none;fontFamily=Verdana;fontColor=#000000;" parent="1" vertex="1">
          <mxGeometry x="370" y="990" width="140" height="78" as="geometry" />
        </mxCell>
        <mxCell id="xy7MtwKxT0VkMzhvmd6g-16" value="+ field: type" style="text;strokeColor=none;fillColor=none;align=left;verticalAlign=top;spacingLeft=4;spacingRight=4;overflow=hidden;rotatable=0;points=[[0,0.5],[1,0.5]];portConstraint=eastwest;labelBackgroundColor=#FFFFFF;labelBorderColor=none;fontFamily=Verdana;fontColor=#000000;" parent="xy7MtwKxT0VkMzhvmd6g-15" vertex="1">
          <mxGeometry y="26" width="140" height="26" as="geometry" />
        </mxCell>
        <mxCell id="xy7MtwKxT0VkMzhvmd6g-17" value="+ field: type" style="text;strokeColor=none;fillColor=none;align=left;verticalAlign=top;spacingLeft=4;spacingRight=4;overflow=hidden;rotatable=0;points=[[0,0.5],[1,0.5]];portConstraint=eastwest;labelBackgroundColor=#FFFFFF;labelBorderColor=none;fontFamily=Verdana;fontColor=#000000;" parent="xy7MtwKxT0VkMzhvmd6g-15" vertex="1">
          <mxGeometry y="52" width="140" height="26" as="geometry" />
        </mxCell>
        <mxCell id="xy7MtwKxT0VkMzhvmd6g-26" style="edgeStyle=orthogonalEdgeStyle;rounded=0;orthogonalLoop=1;jettySize=auto;html=1;entryX=0.471;entryY=1.038;entryDx=0;entryDy=0;entryPerimeter=0;fontFamily=Verdana;fontColor=#000000;" parent="1" source="xy7MtwKxT0VkMzhvmd6g-19" target="xy7MtwKxT0VkMzhvmd6g-13" edge="1">
          <mxGeometry relative="1" as="geometry" />
        </mxCell>
        <mxCell id="xy7MtwKxT0VkMzhvmd6g-19" value="Compact" style="swimlane;fontStyle=0;childLayout=stackLayout;horizontal=1;startSize=26;fillColor=none;horizontalStack=0;resizeParent=1;resizeParentMax=0;resizeLast=0;collapsible=1;marginBottom=0;labelBackgroundColor=#FFFFFF;labelBorderColor=none;fontFamily=Verdana;fontColor=#000000;" parent="1" vertex="1">
          <mxGeometry x="520" y="990" width="140" height="78" as="geometry" />
        </mxCell>
        <mxCell id="xy7MtwKxT0VkMzhvmd6g-20" value="+ field: type" style="text;strokeColor=none;fillColor=none;align=left;verticalAlign=top;spacingLeft=4;spacingRight=4;overflow=hidden;rotatable=0;points=[[0,0.5],[1,0.5]];portConstraint=eastwest;labelBackgroundColor=#FFFFFF;labelBorderColor=none;fontFamily=Verdana;fontColor=#000000;" parent="xy7MtwKxT0VkMzhvmd6g-19" vertex="1">
          <mxGeometry y="26" width="140" height="26" as="geometry" />
        </mxCell>
        <mxCell id="xy7MtwKxT0VkMzhvmd6g-21" value="+ field: type" style="text;strokeColor=none;fillColor=none;align=left;verticalAlign=top;spacingLeft=4;spacingRight=4;overflow=hidden;rotatable=0;points=[[0,0.5],[1,0.5]];portConstraint=eastwest;labelBackgroundColor=#FFFFFF;labelBorderColor=none;fontFamily=Verdana;fontColor=#000000;" parent="xy7MtwKxT0VkMzhvmd6g-19" vertex="1">
          <mxGeometry y="52" width="140" height="26" as="geometry" />
        </mxCell>
        <mxCell id="xy7MtwKxT0VkMzhvmd6g-28" style="edgeStyle=orthogonalEdgeStyle;rounded=0;orthogonalLoop=1;jettySize=auto;html=1;fontFamily=Verdana;fontColor=#000000;" parent="1" edge="1">
          <mxGeometry relative="1" as="geometry">
            <mxPoint x="437" y="937" as="targetPoint" />
            <mxPoint x="747" y="983" as="sourcePoint" />
            <Array as="points">
              <mxPoint x="747" y="957" />
              <mxPoint x="437" y="957" />
            </Array>
          </mxGeometry>
        </mxCell>
        <mxCell id="xy7MtwKxT0VkMzhvmd6g-22" value="MotorCycleParking" style="swimlane;fontStyle=0;childLayout=stackLayout;horizontal=1;startSize=30;fillColor=none;horizontalStack=0;resizeParent=1;resizeParentMax=0;resizeLast=0;collapsible=1;marginBottom=0;labelBackgroundColor=#FFFFFF;labelBorderColor=none;fontFamily=Verdana;fontColor=#000000;" parent="1" vertex="1">
          <mxGeometry x="680" y="986" width="140" height="82" as="geometry" />
        </mxCell>
        <mxCell id="xy7MtwKxT0VkMzhvmd6g-23" value="+ field: type" style="text;strokeColor=none;fillColor=none;align=left;verticalAlign=top;spacingLeft=4;spacingRight=4;overflow=hidden;rotatable=0;points=[[0,0.5],[1,0.5]];portConstraint=eastwest;labelBackgroundColor=#FFFFFF;labelBorderColor=none;fontFamily=Verdana;fontColor=#000000;" parent="xy7MtwKxT0VkMzhvmd6g-22" vertex="1">
          <mxGeometry y="30" width="140" height="26" as="geometry" />
        </mxCell>
        <mxCell id="xy7MtwKxT0VkMzhvmd6g-24" value="+ field: type" style="text;strokeColor=none;fillColor=none;align=left;verticalAlign=top;spacingLeft=4;spacingRight=4;overflow=hidden;rotatable=0;points=[[0,0.5],[1,0.5]];portConstraint=eastwest;labelBackgroundColor=#FFFFFF;labelBorderColor=none;fontFamily=Verdana;fontColor=#000000;" parent="xy7MtwKxT0VkMzhvmd6g-22" vertex="1">
          <mxGeometry y="56" width="140" height="26" as="geometry" />
        </mxCell>
      </root>
    </mxGraphModel>
  </diagram>
  <diagram id="HfLt9atrXsqlP5MfAct0" name="TikTok">
    <mxGraphModel dx="1356" dy="1195" grid="0" gridSize="10" guides="1" tooltips="1" connect="1" arrows="1" fold="1" page="0" pageScale="1" pageWidth="850" pageHeight="1100" math="0" shadow="0">
      <root>
        <mxCell id="0" />
        <mxCell id="1" parent="0" />
        <mxCell id="DFtFKD0rhP5SAIbRIAtx-1" value="What is TikTok?&lt;br&gt;TikTok is social media platform that is used to make the variety of short-form videos from genres like dance,comedy and education, that have a duration of 15secs to 1minute." style="rounded=0;whiteSpace=wrap;html=1;" vertex="1" parent="1">
          <mxGeometry x="-115" y="-188" width="261" height="115" as="geometry" />
        </mxCell>
        <mxCell id="DFtFKD0rhP5SAIbRIAtx-2" value="&lt;div align=&quot;left&quot;&gt;FR&lt;br&gt;&lt;/div&gt;&lt;br&gt;&lt;ol&gt;&lt;li&gt;User Profile&lt;/li&gt;&lt;li&gt;View Video&lt;/li&gt;&lt;li&gt;Upload Video&lt;/li&gt;&lt;li&gt;Create Video&lt;/li&gt;&lt;li&gt;Like Video&lt;/li&gt;&lt;li&gt;Follow User&lt;/li&gt;&lt;li&gt;Live Streaming&lt;br&gt;&lt;/li&gt;&lt;/ol&gt;" style="rounded=0;whiteSpace=wrap;html=1;align=left;" vertex="1" parent="1">
          <mxGeometry x="-115" y="-29" width="145" height="162" as="geometry" />
        </mxCell>
        <mxCell id="DFtFKD0rhP5SAIbRIAtx-3" value="NFR&lt;br&gt;&lt;ol&gt;&lt;li&gt;Security - End-to-End Encryption is required.&lt;br&gt;&lt;/li&gt;&lt;li&gt;Performance- Max time for user interactions like view, stream.&lt;br&gt;&lt;/li&gt;&lt;li&gt;Storage Capacity - max data (video, images, user accounts)&lt;br&gt;&lt;/li&gt;&lt;li&gt;Code Maintainability&lt;/li&gt;&lt;li&gt;Latency&lt;/li&gt;&lt;li&gt;Scalability Aspects about handle large read / write requests&lt;br&gt;&lt;/li&gt;&lt;/ol&gt;" style="rounded=0;whiteSpace=wrap;html=1;align=left;" vertex="1" parent="1">
          <mxGeometry x="49" y="-26" width="395" height="162" as="geometry" />
        </mxCell>
        <mxCell id="DFtFKD0rhP5SAIbRIAtx-4" value="Capacity Estimation:&lt;br&gt;&lt;br&gt;&lt;ul&gt;&lt;li&gt;Traffic Estimation: &lt;br&gt;&lt;/li&gt;&lt;ul&gt;&lt;li&gt;Monthly Active Users (MAU): 1billion&lt;/li&gt;&lt;li&gt;Daily Video Uploads: 50 million&lt;/li&gt;&lt;li&gt;Requests Per Secs (RPS): 500million / 86400 = 5,787&lt;/li&gt;&lt;li&gt;Peak RPS: 2*RPS = 11,574&lt;/li&gt;&lt;/ul&gt;&lt;li&gt;Storage Estimation&lt;/li&gt;&lt;ul&gt;&lt;li&gt;Average user profile size: 1MB&lt;/li&gt;&lt;li&gt;Total user profiles storage: 1 billion * 1 MB = 1 Petabyte (PB)&lt;/li&gt;&lt;li&gt;Average Video Metadata: 500KB&lt;/li&gt;&lt;li&gt;Daily Video Metadata Storage: 50 million * 500KB = 25TB (terabytes)&lt;/li&gt;&lt;li&gt;Monthly video metadata storage: 25TB * 30days = 750TB&lt;/li&gt;&lt;li&gt;Average video size: 20MB&lt;/li&gt;&lt;li&gt;Total video Stream storage: 50million * 20MB = 1 Petabytes (PB) daily&lt;/li&gt;&lt;li&gt;Monthly video Streams storage: 1 PB * 30 days = 30PB&lt;/li&gt;&lt;/ul&gt;&lt;li&gt;Interactions Data&lt;/li&gt;&lt;ul&gt;&lt;li&gt;Daily Interactions storage: 500 million * 10 * 100 = 500GB&lt;/li&gt;&lt;li&gt;Monthly Interactions Storage: 500GB * 30days = 15TB&lt;/li&gt;&lt;/ul&gt;&lt;li&gt;Bandwidth Estimation&lt;/li&gt;&lt;ul&gt;&lt;li&gt;Assuming Average video size: 20MB (high-definition content)&lt;/li&gt;&lt;li&gt;Daily Video Streaming Bandwidth: 50million * 20MB = 1PB daily &lt;br&gt;&lt;/li&gt;&lt;li&gt;Monthly Video Streaming Bandwidth: 1PB * 30 = 30 PB&lt;br&gt;&lt;/li&gt;&lt;/ul&gt;&lt;/ul&gt;" style="rounded=0;whiteSpace=wrap;html=1;align=left;" vertex="1" parent="1">
          <mxGeometry x="-115" y="152" width="558" height="467" as="geometry" />
        </mxCell>
        <mxCell id="DFtFKD0rhP5SAIbRIAtx-5" value="Actor" style="shape=umlActor;verticalLabelPosition=bottom;verticalAlign=top;html=1;outlineConnect=0;" vertex="1" parent="1">
          <mxGeometry x="-177" y="918" width="30" height="60" as="geometry" />
        </mxCell>
        <mxCell id="DFtFKD0rhP5SAIbRIAtx-12" style="edgeStyle=orthogonalEdgeStyle;rounded=0;orthogonalLoop=1;jettySize=auto;html=1;" edge="1" parent="1" source="DFtFKD0rhP5SAIbRIAtx-11">
          <mxGeometry relative="1" as="geometry">
            <mxPoint x="40" y="948" as="targetPoint" />
          </mxGeometry>
        </mxCell>
        <mxCell id="DFtFKD0rhP5SAIbRIAtx-9" value="" style="outlineConnect=0;dashed=0;verticalLabelPosition=bottom;verticalAlign=top;align=center;html=1;shape=mxgraph.aws3.classic_load_balancer;fillColor=#F58534;gradientColor=none;" vertex="1" parent="1">
          <mxGeometry x="-106" y="926" width="46" height="44" as="geometry" />
        </mxCell>
        <mxCell id="DFtFKD0rhP5SAIbRIAtx-10" style="edgeStyle=orthogonalEdgeStyle;rounded=0;orthogonalLoop=1;jettySize=auto;html=1;entryX=0;entryY=0.5;entryDx=0;entryDy=0;entryPerimeter=0;" edge="1" parent="1" source="DFtFKD0rhP5SAIbRIAtx-5" target="DFtFKD0rhP5SAIbRIAtx-9">
          <mxGeometry relative="1" as="geometry" />
        </mxCell>
        <mxCell id="DFtFKD0rhP5SAIbRIAtx-13" value="" style="edgeStyle=orthogonalEdgeStyle;rounded=0;orthogonalLoop=1;jettySize=auto;html=1;" edge="1" parent="1" source="DFtFKD0rhP5SAIbRIAtx-9" target="DFtFKD0rhP5SAIbRIAtx-11">
          <mxGeometry relative="1" as="geometry">
            <mxPoint x="40" y="948" as="targetPoint" />
            <mxPoint x="-36" y="948" as="sourcePoint" />
          </mxGeometry>
        </mxCell>
        <mxCell id="DFtFKD0rhP5SAIbRIAtx-11" value="API Gateway" style="sketch=0;html=1;verticalAlign=top;labelPosition=center;verticalLabelPosition=bottom;align=center;spacingTop=-6;fontSize=11;fontStyle=1;fontColor=#999999;shape=image;aspect=fixed;imageAspect=0;image=data:image/svg+xml,PHN2ZyB4bWxucz0iaHR0cDovL3d3dy53My5vcmcvMjAwMC9zdmciIGhlaWdodD0iMzY3LjgxODMyODg1NzQyMTkiIHZpZXdCb3g9IjcuMTA1NDI3MzU3NjAxMDAyZS0xNSAwIDM2Ni40MTAxODY3Njc1NzgxIDM2Ny44MTgzMjg4NTc0MjE5IiBwcmVzZXJ2ZUFzcGVjdFJhdGlvPSJ4TWlkWU1pZCBtZWV0IiB3aWR0aD0iMzY2LjQxMDE5Njc2NzU3OTEiIHZlcnNpb249IjEuMSIgaWQ9InN2Zzk4NyIgem9vbUFuZFBhbj0ibWFnbmlmeSI+JiN4YTsgIDxwYXRoIGQ9Im0gNDguMjUxOTYsMTExLjUzOTA2IGMgLTcuNjE4NjQsMmUtNCAtMTMuNzk0NzIsNi4xNzYyOCAtMTMuNzk0OTMsMTMuNzk0OTIgMi4xZS00LDcuNjE4NjQgNi4xNzYyOSwxMy43OTQ3MiAxMy43OTQ5MywxMy43OTQ5MiBoIDE0NS4xNDY5MiB2IC0yNy41ODk4NCB6IG0gMjM4LjYwODU5LDU3LjQ1MTE3IGggNjUuNzU0NjkgYyA3LjYxODY0LC0yLjFlLTQgMTMuNzk0NzEsLTYuMTc2MjggMTMuNzk0OTIsLTEzLjc5NDkyIC0yLjFlLTQsLTcuNjE4NjQgLTYuMTc2MjgsLTEzLjc5NDcxIC0xMy43OTQ5MiwtMTMuNzk0OTIgSCAyODQuODUwNiBaIE0gMTMuNzk0OTIsMTcwLjk3NDYxIEMgNi4xNzYyODAxLDE3MC45NzQ4MiAyLjEwMDkxOWUtNCwxNzcuMTUwODkgOS4xODk5MjFlLTgsMTg0Ljc2OTUzIC04LjY5OTA4MWUtNCwxOTIuMzg4OTMgNi4xNzU1MjAxLDE5OC41NjYxOSAxMy43OTQ5MiwxOTguNTY2NCBIIDE5My4zOTg4OCBWIDE3MC45NzQ2MSBaIE0gMjg0LjMwNzgsMjI3LjU2NjQgaCA2OC4zMDc0NCBjIDcuNjE4NjQsLTIuMWUtNCAxMy43OTQ3MSwtNi4xNzYyOCAxMy43OTQ5MiwtMTMuNzk0OTIgLTIuMWUtNCwtNy42MTg2NCAtNi4xNzYyOCwtMTMuNzk0NzEgLTEzLjc5NDkyLC0xMy43OTQ5MiBoIC02NS45MjE3OCB6IG0gLTIzNi4wNTU4NCwxLjY5NzI3IGMgLTcuNjE4NjQsMmUtNCAtMTMuNzk0NzIsNi4xNzYyOCAtMTMuNzk0OTMsMTMuNzk0OTIgMi4xZS00LDcuNjE4NjQgNi4xNzYyOSwxMy43OTQ3MiAxMy43OTQ5MywxMy43OTQ5MiBIIDE5My4zOTg4OCBWIDIyOS4yNjM2NyBaIE0gMTg5LjUyMTQ5LDAgYyAtMjQuNTc0MTEsMCAtNDkuMTY3MzcsMjAuMDU1MDcgLTU5LjQzNzUsNzUuMzczMDQgaCAzMC41ODAwNyBjIDQuNjE2MzMsLTI0LjE2MjA2IDE1LjM0ODk2LC00Ny41MjE0OCAyNy44NTM1MiwtNDcuNTIxNDggMTIuMTU4OCwwIDM5LjQ1ODk4LDU3LjQ1MDQ0IDM5LjQ1ODk4LDE2MC40MTQwNiAwLDY5LjkxNTEzIC0xOS41NzgwOSwxNTIuMTE1MjQgLTQxLjE3MTg3LDE1Mi4xMTUyMyAtMTUuMjY4ODEsMmUtNSAtMjEuMjE2NjgsLTI4LjMzMzU2IC0yNS40NDMzNiwtNDYuNzE4NzQgbCAtMzAuNDE0MDYsLTAuMDY4NCBjIDQuMjIwNzQsMjAuNTQwODcgMTYuOTA3NjgsNzQuMjI0NiA1Ny43MTI4OSw3NC4yMjQ2IDUzLjQzNjcyLDAgNjguOTEyMTEsLTExMS45OTMwNSA2OC45MTIxMSwtMTgwLjQ2Mjg5IEMgMjU3LjU3MjI3LDkzLjgwMDc2IDIzNi41ODM0LDAgMTg5LjUyMTQ5LDAgWiIgc3R5bGU9ImNvbG9yOiMwMDAwMDA7b3BhY2l0eToxO2ZpbGw6IzQyODVmNDtmaWxsLW9wYWNpdHk6MTtzdHJva2UtbGluZWNhcDpyb3VuZDstaW5rc2NhcGUtc3Ryb2tlOm5vbmUiLz4mI3hhOzwvc3ZnPg==;" vertex="1" parent="1">
          <mxGeometry x="-27" y="927" width="42" height="42" as="geometry" />
        </mxCell>
        <mxCell id="DFtFKD0rhP5SAIbRIAtx-15" style="edgeStyle=orthogonalEdgeStyle;rounded=0;orthogonalLoop=1;jettySize=auto;html=1;" edge="1" parent="1" source="DFtFKD0rhP5SAIbRIAtx-14">
          <mxGeometry relative="1" as="geometry">
            <mxPoint x="156" y="948" as="targetPoint" />
          </mxGeometry>
        </mxCell>
        <mxCell id="DFtFKD0rhP5SAIbRIAtx-34" style="edgeStyle=orthogonalEdgeStyle;rounded=0;orthogonalLoop=1;jettySize=auto;html=1;" edge="1" parent="1" source="DFtFKD0rhP5SAIbRIAtx-14">
          <mxGeometry relative="1" as="geometry">
            <mxPoint x="52" y="1018" as="targetPoint" />
          </mxGeometry>
        </mxCell>
        <mxCell id="DFtFKD0rhP5SAIbRIAtx-35" style="edgeStyle=orthogonalEdgeStyle;rounded=0;orthogonalLoop=1;jettySize=auto;html=1;exitX=0.5;exitY=1;exitDx=0;exitDy=0;" edge="1" parent="1" source="DFtFKD0rhP5SAIbRIAtx-14">
          <mxGeometry relative="1" as="geometry">
            <mxPoint x="-101" y="1020" as="targetPoint" />
          </mxGeometry>
        </mxCell>
        <mxCell id="DFtFKD0rhP5SAIbRIAtx-14" value="Video Upload Service" style="rounded=0;whiteSpace=wrap;html=1;" vertex="1" parent="1">
          <mxGeometry x="40" y="918" width="68" height="60" as="geometry" />
        </mxCell>
        <mxCell id="DFtFKD0rhP5SAIbRIAtx-20" style="edgeStyle=orthogonalEdgeStyle;rounded=0;orthogonalLoop=1;jettySize=auto;html=1;" edge="1" parent="1" source="DFtFKD0rhP5SAIbRIAtx-16" target="DFtFKD0rhP5SAIbRIAtx-19">
          <mxGeometry relative="1" as="geometry" />
        </mxCell>
        <mxCell id="DFtFKD0rhP5SAIbRIAtx-16" value="Primary Blob Storage" style="rounded=0;whiteSpace=wrap;html=1;" vertex="1" parent="1">
          <mxGeometry x="156" y="918" width="51" height="60" as="geometry" />
        </mxCell>
        <mxCell id="DFtFKD0rhP5SAIbRIAtx-22" value="" style="edgeStyle=orthogonalEdgeStyle;rounded=0;orthogonalLoop=1;jettySize=auto;html=1;" edge="1" parent="1" source="DFtFKD0rhP5SAIbRIAtx-19" target="DFtFKD0rhP5SAIbRIAtx-21">
          <mxGeometry relative="1" as="geometry" />
        </mxCell>
        <mxCell id="DFtFKD0rhP5SAIbRIAtx-19" value="" style="image;aspect=fixed;html=1;points=[];align=center;fontSize=12;image=img/lib/azure2/general/Storage_Queue.svg;" vertex="1" parent="1">
          <mxGeometry x="278" y="918" width="72.62" height="59" as="geometry" />
        </mxCell>
        <mxCell id="DFtFKD0rhP5SAIbRIAtx-24" value="" style="edgeStyle=orthogonalEdgeStyle;rounded=0;orthogonalLoop=1;jettySize=auto;html=1;" edge="1" parent="1" source="DFtFKD0rhP5SAIbRIAtx-21" target="DFtFKD0rhP5SAIbRIAtx-23">
          <mxGeometry relative="1" as="geometry" />
        </mxCell>
        <mxCell id="DFtFKD0rhP5SAIbRIAtx-21" value="&lt;div&gt;Encoder/Transcoder Services&lt;/div&gt;&lt;div&gt;&lt;br&gt;&lt;/div&gt;" style="whiteSpace=wrap;html=1;verticalAlign=top;labelBackgroundColor=red;" vertex="1" parent="1">
          <mxGeometry x="269.46" y="1025.25" width="89.69" height="53.5" as="geometry" />
        </mxCell>
        <mxCell id="DFtFKD0rhP5SAIbRIAtx-23" value="Video Storage Blob" style="whiteSpace=wrap;html=1;verticalAlign=top;labelBackgroundColor=default;" vertex="1" parent="1">
          <mxGeometry x="397" y="1022" width="64.01" height="60" as="geometry" />
        </mxCell>
        <mxCell id="DFtFKD0rhP5SAIbRIAtx-25" value="Recommendation Services" style="whiteSpace=wrap;html=1;" vertex="1" parent="1">
          <mxGeometry x="139" y="1217" width="120" height="60" as="geometry" />
        </mxCell>
        <mxCell id="DFtFKD0rhP5SAIbRIAtx-26" value="&lt;div align=&quot;justify&quot;&gt;&amp;nbsp;Feed &lt;br&gt;&lt;/div&gt;&lt;div align=&quot;justify&quot;&gt;Cache&lt;/div&gt;" style="whiteSpace=wrap;html=1;align=right;" vertex="1" parent="1">
          <mxGeometry x="-20" y="1217" width="120" height="60" as="geometry" />
        </mxCell>
        <mxCell id="DFtFKD0rhP5SAIbRIAtx-27" value="" style="dashed=0;outlineConnect=0;html=1;align=center;labelPosition=center;verticalLabelPosition=bottom;verticalAlign=top;shape=mxgraph.webicons.feed;fillColor=#FFAC75;gradientColor=#FF6600" vertex="1" parent="1">
          <mxGeometry x="-10" y="1233" width="19" height="18" as="geometry" />
        </mxCell>
        <mxCell id="DFtFKD0rhP5SAIbRIAtx-30" value="" style="dashed=0;outlineConnect=0;html=1;align=center;labelPosition=center;verticalLabelPosition=bottom;verticalAlign=top;shape=mxgraph.webicons.feed;fillColor=#FFAC75;gradientColor=#FF6600" vertex="1" parent="1">
          <mxGeometry x="-5" y="1238" width="19" height="18" as="geometry" />
        </mxCell>
        <mxCell id="DFtFKD0rhP5SAIbRIAtx-31" value="" style="dashed=0;outlineConnect=0;html=1;align=center;labelPosition=center;verticalLabelPosition=bottom;verticalAlign=top;shape=mxgraph.webicons.feed;fillColor=#FFAC75;gradientColor=#FF6600" vertex="1" parent="1">
          <mxGeometry x="1" y="1245" width="19" height="18" as="geometry" />
        </mxCell>
        <mxCell id="DFtFKD0rhP5SAIbRIAtx-32" value="Video Streaming Services" style="whiteSpace=wrap;html=1;" vertex="1" parent="1">
          <mxGeometry x="-147" y="1022" width="120" height="60" as="geometry" />
        </mxCell>
        <mxCell id="DFtFKD0rhP5SAIbRIAtx-33" value="User Interaction Services" style="whiteSpace=wrap;html=1;" vertex="1" parent="1">
          <mxGeometry x="15" y="1022" width="76" height="60" as="geometry" />
        </mxCell>
        <mxCell id="DFtFKD0rhP5SAIbRIAtx-38" value="" style="edgeStyle=orthogonalEdgeStyle;rounded=0;orthogonalLoop=1;jettySize=auto;html=1;" edge="1" parent="1" source="DFtFKD0rhP5SAIbRIAtx-37" target="DFtFKD0rhP5SAIbRIAtx-33">
          <mxGeometry relative="1" as="geometry" />
        </mxCell>
        <mxCell id="DFtFKD0rhP5SAIbRIAtx-39" value="" style="edgeStyle=orthogonalEdgeStyle;rounded=0;orthogonalLoop=1;jettySize=auto;html=1;" edge="1" parent="1" source="DFtFKD0rhP5SAIbRIAtx-37" target="DFtFKD0rhP5SAIbRIAtx-21">
          <mxGeometry relative="1" as="geometry" />
        </mxCell>
        <mxCell id="DFtFKD0rhP5SAIbRIAtx-37" value="&lt;div align=&quot;center&quot;&gt;&lt;br&gt;&lt;br&gt;Metadata&lt;br&gt;User&lt;br&gt;Interaction&lt;br&gt;&lt;/div&gt;" style="strokeWidth=2;html=1;shape=mxgraph.flowchart.database;whiteSpace=wrap;align=center;" vertex="1" parent="1">
          <mxGeometry x="135" y="1007" width="93" height="90" as="geometry" />
        </mxCell>
        <mxCell id="DFtFKD0rhP5SAIbRIAtx-40" value="" style="sketch=0;outlineConnect=0;fontColor=#232F3E;gradientColor=none;fillColor=#7AA116;strokeColor=none;dashed=0;verticalLabelPosition=bottom;verticalAlign=top;align=center;html=1;fontSize=12;fontStyle=0;aspect=fixed;pointerEvents=1;shape=mxgraph.aws4.bucket_with_objects;" vertex="1" parent="1">
          <mxGeometry x="440" y="995" width="51" height="53.04" as="geometry" />
        </mxCell>
        <mxCell id="DFtFKD0rhP5SAIbRIAtx-41" value="Fan-out Services" style="whiteSpace=wrap;html=1;" vertex="1" parent="1">
          <mxGeometry x="57" y="1129" width="60" height="60" as="geometry" />
        </mxCell>
        <mxCell id="DFtFKD0rhP5SAIbRIAtx-42" value="" style="endArrow=classic;html=1;rounded=0;entryX=0.5;entryY=1;entryDx=0;entryDy=0;entryPerimeter=0;" edge="1" parent="1" target="DFtFKD0rhP5SAIbRIAtx-37">
          <mxGeometry width="50" height="50" relative="1" as="geometry">
            <mxPoint x="117" y="1160" as="sourcePoint" />
            <mxPoint x="201" y="1200" as="targetPoint" />
          </mxGeometry>
        </mxCell>
        <mxCell id="DFtFKD0rhP5SAIbRIAtx-43" value="" style="endArrow=classic;html=1;rounded=0;entryX=0.5;entryY=1;entryDx=0;entryDy=0;" edge="1" parent="1" target="DFtFKD0rhP5SAIbRIAtx-23">
          <mxGeometry width="50" height="50" relative="1" as="geometry">
            <mxPoint x="119" y="1159" as="sourcePoint" />
            <mxPoint x="192" y="1107" as="targetPoint" />
          </mxGeometry>
        </mxCell>
        <mxCell id="DFtFKD0rhP5SAIbRIAtx-44" value="" style="endArrow=classic;html=1;rounded=0;exitX=0.5;exitY=0;exitDx=0;exitDy=0;" edge="1" parent="1" source="DFtFKD0rhP5SAIbRIAtx-25">
          <mxGeometry width="50" height="50" relative="1" as="geometry">
            <mxPoint x="137" y="1180" as="sourcePoint" />
            <mxPoint x="426" y="1085" as="targetPoint" />
          </mxGeometry>
        </mxCell>
        <mxCell id="DFtFKD0rhP5SAIbRIAtx-45" value="" style="endArrow=classic;html=1;rounded=0;entryX=0.5;entryY=1;entryDx=0;entryDy=0;entryPerimeter=0;" edge="1" parent="1" source="DFtFKD0rhP5SAIbRIAtx-25" target="DFtFKD0rhP5SAIbRIAtx-37">
          <mxGeometry width="50" height="50" relative="1" as="geometry">
            <mxPoint x="199" y="1212" as="sourcePoint" />
            <mxPoint x="212" y="1127" as="targetPoint" />
          </mxGeometry>
        </mxCell>
        <mxCell id="DFtFKD0rhP5SAIbRIAtx-46" value="" style="endArrow=classic;html=1;rounded=0;entryX=1;entryY=0.5;entryDx=0;entryDy=0;exitX=0;exitY=0.5;exitDx=0;exitDy=0;" edge="1" parent="1" source="DFtFKD0rhP5SAIbRIAtx-25" target="DFtFKD0rhP5SAIbRIAtx-26">
          <mxGeometry width="50" height="50" relative="1" as="geometry">
            <mxPoint x="157" y="1200" as="sourcePoint" />
            <mxPoint x="222" y="1137" as="targetPoint" />
          </mxGeometry>
        </mxCell>
        <mxCell id="DFtFKD0rhP5SAIbRIAtx-47" value="" style="endArrow=classic;html=1;rounded=0;entryX=0.5;entryY=0;entryDx=0;entryDy=0;exitX=0.5;exitY=1;exitDx=0;exitDy=0;" edge="1" parent="1" source="DFtFKD0rhP5SAIbRIAtx-41" target="DFtFKD0rhP5SAIbRIAtx-26">
          <mxGeometry width="50" height="50" relative="1" as="geometry">
            <mxPoint x="167" y="1210" as="sourcePoint" />
            <mxPoint x="232" y="1147" as="targetPoint" />
          </mxGeometry>
        </mxCell>
        <mxCell id="DFtFKD0rhP5SAIbRIAtx-49" value="" style="endArrow=classic;html=1;rounded=0;entryX=0;entryY=0.5;entryDx=0;entryDy=0;exitX=0.5;exitY=1;exitDx=0;exitDy=0;" edge="1" parent="1" source="DFtFKD0rhP5SAIbRIAtx-32" target="DFtFKD0rhP5SAIbRIAtx-26">
          <mxGeometry width="50" height="50" relative="1" as="geometry">
            <mxPoint x="177" y="1220" as="sourcePoint" />
            <mxPoint x="242" y="1157" as="targetPoint" />
          </mxGeometry>
        </mxCell>
        <mxCell id="DFtFKD0rhP5SAIbRIAtx-50" value="&lt;div align=&quot;left&quot;&gt;&lt;ul&gt;&lt;li&gt;&lt;b&gt;User Authentication&lt;/b&gt;&lt;/li&gt;&lt;ul&gt;&lt;li&gt;Oauth/OpenID Connect for login and access control&lt;/li&gt;&lt;li&gt;User authentication is process of validating the identity of a user attempting to access the system.&lt;br&gt;&lt;/li&gt;&lt;/ul&gt;&lt;li&gt;&lt;b&gt;User Profile Handling&lt;/b&gt;&lt;/li&gt;&lt;ul&gt;&lt;li&gt;Stores the user details, preferences and profile information securely.&lt;/li&gt;&lt;li&gt;It contains usernames, email, profile pictures and user preferences.&lt;br&gt;&lt;/li&gt;&lt;/ul&gt;&lt;li&gt;&lt;b&gt;Video Upload&lt;/b&gt;&lt;/li&gt;&lt;ul&gt;&lt;li&gt;Process and store video uploaded by users&lt;/li&gt;&lt;li&gt;Video Upload involves handling various aspects including video processing (compression, format conversion) metadata management (captions, tags) and validation (file types, size-limits). &lt;br&gt;&lt;/li&gt;&lt;/ul&gt;&lt;li&gt;&lt;b&gt;Comment and Interaction&lt;/b&gt;&lt;/li&gt;&lt;ul&gt;&lt;li&gt;Manages user interactions such as likes, comments and shares associated with videos&lt;/li&gt;&lt;li&gt;Content management&lt;/li&gt;&lt;/ul&gt;&lt;li&gt;Cache&lt;/li&gt;&lt;li&gt;content optimization&lt;/li&gt;&lt;ul&gt;&lt;li&gt;Optimizing video quality for internet viewing like HLS&lt;/li&gt;&lt;li&gt;Adaptive bitrate streaming adjusts the quality of the video streams based on the internet speed and the device on which video is being watched&lt;/li&gt;&lt;/ul&gt;&lt;li&gt;Notification&lt;/li&gt;&lt;li&gt;Messaging&lt;/li&gt;&lt;ul&gt;&lt;li&gt;Real time communication using WebSockets a communication protocol&lt;/li&gt;&lt;/ul&gt;&lt;li&gt;Recommendation&lt;/li&gt;&lt;ul&gt;&lt;li&gt;Utilize machine learning models to predict user preferences and &lt;br&gt;&lt;/li&gt;&lt;/ul&gt;&lt;/ul&gt;&lt;/div&gt;" style="text;html=1;align=left;verticalAlign=middle;whiteSpace=wrap;rounded=0;" vertex="1" parent="1">
          <mxGeometry x="-281" y="1328" width="776" height="414" as="geometry" />
        </mxCell>
        <mxCell id="DFtFKD0rhP5SAIbRIAtx-107" value="User" style="shape=table;startSize=30;container=1;collapsible=1;childLayout=tableLayout;fixedRows=1;rowLines=0;fontStyle=1;align=center;resizeLast=1;html=1;rounded=1;" vertex="1" parent="1">
          <mxGeometry x="-260" y="1781" width="180" height="240" as="geometry" />
        </mxCell>
        <mxCell id="DFtFKD0rhP5SAIbRIAtx-108" value="" style="shape=tableRow;horizontal=0;startSize=0;swimlaneHead=0;swimlaneBody=0;fillColor=none;collapsible=0;dropTarget=0;points=[[0,0.5],[1,0.5]];portConstraint=eastwest;top=0;left=0;right=0;bottom=1;" vertex="1" parent="DFtFKD0rhP5SAIbRIAtx-107">
          <mxGeometry y="30" width="180" height="30" as="geometry" />
        </mxCell>
        <mxCell id="DFtFKD0rhP5SAIbRIAtx-109" value="PK" style="shape=partialRectangle;connectable=0;fillColor=none;top=0;left=0;bottom=0;right=0;fontStyle=1;overflow=hidden;whiteSpace=wrap;html=1;" vertex="1" parent="DFtFKD0rhP5SAIbRIAtx-108">
          <mxGeometry width="30" height="30" as="geometry">
            <mxRectangle width="30" height="30" as="alternateBounds" />
          </mxGeometry>
        </mxCell>
        <object label="UserID" UserName="" id="DFtFKD0rhP5SAIbRIAtx-110">
          <mxCell style="shape=partialRectangle;connectable=0;fillColor=none;top=0;left=0;bottom=0;right=0;align=left;spacingLeft=6;fontStyle=5;overflow=hidden;whiteSpace=wrap;html=1;" vertex="1" parent="DFtFKD0rhP5SAIbRIAtx-108">
            <mxGeometry x="30" width="150" height="30" as="geometry">
              <mxRectangle width="150" height="30" as="alternateBounds" />
            </mxGeometry>
          </mxCell>
        </object>
        <mxCell id="DFtFKD0rhP5SAIbRIAtx-111" value="" style="shape=tableRow;horizontal=0;startSize=0;swimlaneHead=0;swimlaneBody=0;fillColor=none;collapsible=0;dropTarget=0;points=[[0,0.5],[1,0.5]];portConstraint=eastwest;top=0;left=0;right=0;bottom=0;" vertex="1" parent="DFtFKD0rhP5SAIbRIAtx-107">
          <mxGeometry y="60" width="180" height="30" as="geometry" />
        </mxCell>
        <mxCell id="DFtFKD0rhP5SAIbRIAtx-112" value="" style="shape=partialRectangle;connectable=0;fillColor=none;top=0;left=0;bottom=0;right=0;editable=1;overflow=hidden;whiteSpace=wrap;html=1;" vertex="1" parent="DFtFKD0rhP5SAIbRIAtx-111">
          <mxGeometry width="30" height="30" as="geometry">
            <mxRectangle width="30" height="30" as="alternateBounds" />
          </mxGeometry>
        </mxCell>
        <mxCell id="DFtFKD0rhP5SAIbRIAtx-113" value="Username" style="shape=partialRectangle;connectable=0;fillColor=none;top=0;left=0;bottom=0;right=0;align=left;spacingLeft=6;overflow=hidden;whiteSpace=wrap;html=1;" vertex="1" parent="DFtFKD0rhP5SAIbRIAtx-111">
          <mxGeometry x="30" width="150" height="30" as="geometry">
            <mxRectangle width="150" height="30" as="alternateBounds" />
          </mxGeometry>
        </mxCell>
        <mxCell id="DFtFKD0rhP5SAIbRIAtx-114" value="" style="shape=tableRow;horizontal=0;startSize=0;swimlaneHead=0;swimlaneBody=0;fillColor=none;collapsible=0;dropTarget=0;points=[[0,0.5],[1,0.5]];portConstraint=eastwest;top=0;left=0;right=0;bottom=0;" vertex="1" parent="DFtFKD0rhP5SAIbRIAtx-107">
          <mxGeometry y="90" width="180" height="30" as="geometry" />
        </mxCell>
        <mxCell id="DFtFKD0rhP5SAIbRIAtx-115" value="" style="shape=partialRectangle;connectable=0;fillColor=none;top=0;left=0;bottom=0;right=0;editable=1;overflow=hidden;whiteSpace=wrap;html=1;" vertex="1" parent="DFtFKD0rhP5SAIbRIAtx-114">
          <mxGeometry width="30" height="30" as="geometry">
            <mxRectangle width="30" height="30" as="alternateBounds" />
          </mxGeometry>
        </mxCell>
        <mxCell id="DFtFKD0rhP5SAIbRIAtx-116" value="Email" style="shape=partialRectangle;connectable=0;fillColor=none;top=0;left=0;bottom=0;right=0;align=left;spacingLeft=6;overflow=hidden;whiteSpace=wrap;html=1;" vertex="1" parent="DFtFKD0rhP5SAIbRIAtx-114">
          <mxGeometry x="30" width="150" height="30" as="geometry">
            <mxRectangle width="150" height="30" as="alternateBounds" />
          </mxGeometry>
        </mxCell>
        <mxCell id="DFtFKD0rhP5SAIbRIAtx-117" value="" style="shape=tableRow;horizontal=0;startSize=0;swimlaneHead=0;swimlaneBody=0;fillColor=none;collapsible=0;dropTarget=0;points=[[0,0.5],[1,0.5]];portConstraint=eastwest;top=0;left=0;right=0;bottom=0;" vertex="1" parent="DFtFKD0rhP5SAIbRIAtx-107">
          <mxGeometry y="120" width="180" height="30" as="geometry" />
        </mxCell>
        <mxCell id="DFtFKD0rhP5SAIbRIAtx-118" value="" style="shape=partialRectangle;connectable=0;fillColor=none;top=0;left=0;bottom=0;right=0;editable=1;overflow=hidden;whiteSpace=wrap;html=1;" vertex="1" parent="DFtFKD0rhP5SAIbRIAtx-117">
          <mxGeometry width="30" height="30" as="geometry">
            <mxRectangle width="30" height="30" as="alternateBounds" />
          </mxGeometry>
        </mxCell>
        <mxCell id="DFtFKD0rhP5SAIbRIAtx-119" value="Password" style="shape=partialRectangle;connectable=0;fillColor=none;top=0;left=0;bottom=0;right=0;align=left;spacingLeft=6;overflow=hidden;whiteSpace=wrap;html=1;" vertex="1" parent="DFtFKD0rhP5SAIbRIAtx-117">
          <mxGeometry x="30" width="150" height="30" as="geometry">
            <mxRectangle width="150" height="30" as="alternateBounds" />
          </mxGeometry>
        </mxCell>
        <mxCell id="DFtFKD0rhP5SAIbRIAtx-211" value="" style="shape=tableRow;horizontal=0;startSize=0;swimlaneHead=0;swimlaneBody=0;fillColor=none;collapsible=0;dropTarget=0;points=[[0,0.5],[1,0.5]];portConstraint=eastwest;top=0;left=0;right=0;bottom=0;" vertex="1" parent="DFtFKD0rhP5SAIbRIAtx-107">
          <mxGeometry y="150" width="180" height="30" as="geometry" />
        </mxCell>
        <mxCell id="DFtFKD0rhP5SAIbRIAtx-212" value="" style="shape=partialRectangle;connectable=0;fillColor=none;top=0;left=0;bottom=0;right=0;editable=1;overflow=hidden;whiteSpace=wrap;html=1;" vertex="1" parent="DFtFKD0rhP5SAIbRIAtx-211">
          <mxGeometry width="30" height="30" as="geometry">
            <mxRectangle width="30" height="30" as="alternateBounds" />
          </mxGeometry>
        </mxCell>
        <mxCell id="DFtFKD0rhP5SAIbRIAtx-213" value="ProfilePictureURL" style="shape=partialRectangle;connectable=0;fillColor=none;top=0;left=0;bottom=0;right=0;align=left;spacingLeft=6;overflow=hidden;whiteSpace=wrap;html=1;" vertex="1" parent="DFtFKD0rhP5SAIbRIAtx-211">
          <mxGeometry x="30" width="150" height="30" as="geometry">
            <mxRectangle width="150" height="30" as="alternateBounds" />
          </mxGeometry>
        </mxCell>
        <mxCell id="DFtFKD0rhP5SAIbRIAtx-214" value="" style="shape=tableRow;horizontal=0;startSize=0;swimlaneHead=0;swimlaneBody=0;fillColor=none;collapsible=0;dropTarget=0;points=[[0,0.5],[1,0.5]];portConstraint=eastwest;top=0;left=0;right=0;bottom=0;" vertex="1" parent="DFtFKD0rhP5SAIbRIAtx-107">
          <mxGeometry y="180" width="180" height="30" as="geometry" />
        </mxCell>
        <mxCell id="DFtFKD0rhP5SAIbRIAtx-215" value="" style="shape=partialRectangle;connectable=0;fillColor=none;top=0;left=0;bottom=0;right=0;editable=1;overflow=hidden;whiteSpace=wrap;html=1;" vertex="1" parent="DFtFKD0rhP5SAIbRIAtx-214">
          <mxGeometry width="30" height="30" as="geometry">
            <mxRectangle width="30" height="30" as="alternateBounds" />
          </mxGeometry>
        </mxCell>
        <mxCell id="DFtFKD0rhP5SAIbRIAtx-216" value="Bio" style="shape=partialRectangle;connectable=0;fillColor=none;top=0;left=0;bottom=0;right=0;align=left;spacingLeft=6;overflow=hidden;whiteSpace=wrap;html=1;" vertex="1" parent="DFtFKD0rhP5SAIbRIAtx-214">
          <mxGeometry x="30" width="150" height="30" as="geometry">
            <mxRectangle width="150" height="30" as="alternateBounds" />
          </mxGeometry>
        </mxCell>
        <mxCell id="DFtFKD0rhP5SAIbRIAtx-217" value="" style="shape=tableRow;horizontal=0;startSize=0;swimlaneHead=0;swimlaneBody=0;fillColor=none;collapsible=0;dropTarget=0;points=[[0,0.5],[1,0.5]];portConstraint=eastwest;top=0;left=0;right=0;bottom=0;" vertex="1" parent="DFtFKD0rhP5SAIbRIAtx-107">
          <mxGeometry y="210" width="180" height="30" as="geometry" />
        </mxCell>
        <mxCell id="DFtFKD0rhP5SAIbRIAtx-218" value="&lt;b&gt;FK&lt;/b&gt;" style="shape=partialRectangle;connectable=0;fillColor=none;top=0;left=0;bottom=0;right=0;editable=1;overflow=hidden;whiteSpace=wrap;html=1;" vertex="1" parent="DFtFKD0rhP5SAIbRIAtx-217">
          <mxGeometry width="30" height="30" as="geometry">
            <mxRectangle width="30" height="30" as="alternateBounds" />
          </mxGeometry>
        </mxCell>
        <mxCell id="DFtFKD0rhP5SAIbRIAtx-219" value="VideoID" style="shape=partialRectangle;connectable=0;fillColor=none;top=0;left=0;bottom=0;right=0;align=left;spacingLeft=6;overflow=hidden;whiteSpace=wrap;html=1;" vertex="1" parent="DFtFKD0rhP5SAIbRIAtx-217">
          <mxGeometry x="30" width="150" height="30" as="geometry">
            <mxRectangle width="150" height="30" as="alternateBounds" />
          </mxGeometry>
        </mxCell>
        <mxCell id="DFtFKD0rhP5SAIbRIAtx-120" value="User" style="shape=table;startSize=30;container=1;collapsible=1;childLayout=tableLayout;fixedRows=1;rowLines=0;fontStyle=1;align=center;resizeLast=1;html=1;rounded=1;" vertex="1" parent="1">
          <mxGeometry x="-262" y="2087" width="180" height="240" as="geometry" />
        </mxCell>
        <mxCell id="DFtFKD0rhP5SAIbRIAtx-121" value="" style="shape=tableRow;horizontal=0;startSize=0;swimlaneHead=0;swimlaneBody=0;fillColor=none;collapsible=0;dropTarget=0;points=[[0,0.5],[1,0.5]];portConstraint=eastwest;top=0;left=0;right=0;bottom=1;" vertex="1" parent="DFtFKD0rhP5SAIbRIAtx-120">
          <mxGeometry y="30" width="180" height="30" as="geometry" />
        </mxCell>
        <mxCell id="DFtFKD0rhP5SAIbRIAtx-122" value="PK" style="shape=partialRectangle;connectable=0;fillColor=none;top=0;left=0;bottom=0;right=0;fontStyle=1;overflow=hidden;whiteSpace=wrap;html=1;" vertex="1" parent="DFtFKD0rhP5SAIbRIAtx-121">
          <mxGeometry width="30" height="30" as="geometry">
            <mxRectangle width="30" height="30" as="alternateBounds" />
          </mxGeometry>
        </mxCell>
        <object label="UserID" UserName="" id="DFtFKD0rhP5SAIbRIAtx-123">
          <mxCell style="shape=partialRectangle;connectable=0;fillColor=none;top=0;left=0;bottom=0;right=0;align=left;spacingLeft=6;fontStyle=5;overflow=hidden;whiteSpace=wrap;html=1;" vertex="1" parent="DFtFKD0rhP5SAIbRIAtx-121">
            <mxGeometry x="30" width="150" height="30" as="geometry">
              <mxRectangle width="150" height="30" as="alternateBounds" />
            </mxGeometry>
          </mxCell>
        </object>
        <mxCell id="DFtFKD0rhP5SAIbRIAtx-124" value="" style="shape=tableRow;horizontal=0;startSize=0;swimlaneHead=0;swimlaneBody=0;fillColor=none;collapsible=0;dropTarget=0;points=[[0,0.5],[1,0.5]];portConstraint=eastwest;top=0;left=0;right=0;bottom=0;" vertex="1" parent="DFtFKD0rhP5SAIbRIAtx-120">
          <mxGeometry y="60" width="180" height="30" as="geometry" />
        </mxCell>
        <mxCell id="DFtFKD0rhP5SAIbRIAtx-125" value="" style="shape=partialRectangle;connectable=0;fillColor=none;top=0;left=0;bottom=0;right=0;editable=1;overflow=hidden;whiteSpace=wrap;html=1;" vertex="1" parent="DFtFKD0rhP5SAIbRIAtx-124">
          <mxGeometry width="30" height="30" as="geometry">
            <mxRectangle width="30" height="30" as="alternateBounds" />
          </mxGeometry>
        </mxCell>
        <mxCell id="DFtFKD0rhP5SAIbRIAtx-126" value="UserName" style="shape=partialRectangle;connectable=0;fillColor=none;top=0;left=0;bottom=0;right=0;align=left;spacingLeft=6;overflow=hidden;whiteSpace=wrap;html=1;" vertex="1" parent="DFtFKD0rhP5SAIbRIAtx-124">
          <mxGeometry x="30" width="150" height="30" as="geometry">
            <mxRectangle width="150" height="30" as="alternateBounds" />
          </mxGeometry>
        </mxCell>
        <mxCell id="DFtFKD0rhP5SAIbRIAtx-127" value="" style="shape=tableRow;horizontal=0;startSize=0;swimlaneHead=0;swimlaneBody=0;fillColor=none;collapsible=0;dropTarget=0;points=[[0,0.5],[1,0.5]];portConstraint=eastwest;top=0;left=0;right=0;bottom=0;" vertex="1" parent="DFtFKD0rhP5SAIbRIAtx-120">
          <mxGeometry y="90" width="180" height="30" as="geometry" />
        </mxCell>
        <mxCell id="DFtFKD0rhP5SAIbRIAtx-128" value="" style="shape=partialRectangle;connectable=0;fillColor=none;top=0;left=0;bottom=0;right=0;editable=1;overflow=hidden;whiteSpace=wrap;html=1;" vertex="1" parent="DFtFKD0rhP5SAIbRIAtx-127">
          <mxGeometry width="30" height="30" as="geometry">
            <mxRectangle width="30" height="30" as="alternateBounds" />
          </mxGeometry>
        </mxCell>
        <mxCell id="DFtFKD0rhP5SAIbRIAtx-129" value="Email" style="shape=partialRectangle;connectable=0;fillColor=none;top=0;left=0;bottom=0;right=0;align=left;spacingLeft=6;overflow=hidden;whiteSpace=wrap;html=1;" vertex="1" parent="DFtFKD0rhP5SAIbRIAtx-127">
          <mxGeometry x="30" width="150" height="30" as="geometry">
            <mxRectangle width="150" height="30" as="alternateBounds" />
          </mxGeometry>
        </mxCell>
        <mxCell id="DFtFKD0rhP5SAIbRIAtx-130" value="" style="shape=tableRow;horizontal=0;startSize=0;swimlaneHead=0;swimlaneBody=0;fillColor=none;collapsible=0;dropTarget=0;points=[[0,0.5],[1,0.5]];portConstraint=eastwest;top=0;left=0;right=0;bottom=0;" vertex="1" parent="DFtFKD0rhP5SAIbRIAtx-120">
          <mxGeometry y="120" width="180" height="30" as="geometry" />
        </mxCell>
        <mxCell id="DFtFKD0rhP5SAIbRIAtx-131" value="" style="shape=partialRectangle;connectable=0;fillColor=none;top=0;left=0;bottom=0;right=0;editable=1;overflow=hidden;whiteSpace=wrap;html=1;" vertex="1" parent="DFtFKD0rhP5SAIbRIAtx-130">
          <mxGeometry width="30" height="30" as="geometry">
            <mxRectangle width="30" height="30" as="alternateBounds" />
          </mxGeometry>
        </mxCell>
        <mxCell id="DFtFKD0rhP5SAIbRIAtx-132" value="Password" style="shape=partialRectangle;connectable=0;fillColor=none;top=0;left=0;bottom=0;right=0;align=left;spacingLeft=6;overflow=hidden;whiteSpace=wrap;html=1;" vertex="1" parent="DFtFKD0rhP5SAIbRIAtx-130">
          <mxGeometry x="30" width="150" height="30" as="geometry">
            <mxRectangle width="150" height="30" as="alternateBounds" />
          </mxGeometry>
        </mxCell>
        <mxCell id="DFtFKD0rhP5SAIbRIAtx-269" value="" style="shape=tableRow;horizontal=0;startSize=0;swimlaneHead=0;swimlaneBody=0;fillColor=none;collapsible=0;dropTarget=0;points=[[0,0.5],[1,0.5]];portConstraint=eastwest;top=0;left=0;right=0;bottom=0;" vertex="1" parent="DFtFKD0rhP5SAIbRIAtx-120">
          <mxGeometry y="150" width="180" height="30" as="geometry" />
        </mxCell>
        <mxCell id="DFtFKD0rhP5SAIbRIAtx-270" value="" style="shape=partialRectangle;connectable=0;fillColor=none;top=0;left=0;bottom=0;right=0;editable=1;overflow=hidden;whiteSpace=wrap;html=1;" vertex="1" parent="DFtFKD0rhP5SAIbRIAtx-269">
          <mxGeometry width="30" height="30" as="geometry">
            <mxRectangle width="30" height="30" as="alternateBounds" />
          </mxGeometry>
        </mxCell>
        <mxCell id="DFtFKD0rhP5SAIbRIAtx-271" value="ProfilePicture" style="shape=partialRectangle;connectable=0;fillColor=none;top=0;left=0;bottom=0;right=0;align=left;spacingLeft=6;overflow=hidden;whiteSpace=wrap;html=1;" vertex="1" parent="DFtFKD0rhP5SAIbRIAtx-269">
          <mxGeometry x="30" width="150" height="30" as="geometry">
            <mxRectangle width="150" height="30" as="alternateBounds" />
          </mxGeometry>
        </mxCell>
        <mxCell id="DFtFKD0rhP5SAIbRIAtx-272" value="" style="shape=tableRow;horizontal=0;startSize=0;swimlaneHead=0;swimlaneBody=0;fillColor=none;collapsible=0;dropTarget=0;points=[[0,0.5],[1,0.5]];portConstraint=eastwest;top=0;left=0;right=0;bottom=0;" vertex="1" parent="DFtFKD0rhP5SAIbRIAtx-120">
          <mxGeometry y="180" width="180" height="30" as="geometry" />
        </mxCell>
        <mxCell id="DFtFKD0rhP5SAIbRIAtx-273" value="" style="shape=partialRectangle;connectable=0;fillColor=none;top=0;left=0;bottom=0;right=0;editable=1;overflow=hidden;whiteSpace=wrap;html=1;" vertex="1" parent="DFtFKD0rhP5SAIbRIAtx-272">
          <mxGeometry width="30" height="30" as="geometry">
            <mxRectangle width="30" height="30" as="alternateBounds" />
          </mxGeometry>
        </mxCell>
        <mxCell id="DFtFKD0rhP5SAIbRIAtx-274" value="Bio" style="shape=partialRectangle;connectable=0;fillColor=none;top=0;left=0;bottom=0;right=0;align=left;spacingLeft=6;overflow=hidden;whiteSpace=wrap;html=1;" vertex="1" parent="DFtFKD0rhP5SAIbRIAtx-272">
          <mxGeometry x="30" width="150" height="30" as="geometry">
            <mxRectangle width="150" height="30" as="alternateBounds" />
          </mxGeometry>
        </mxCell>
        <mxCell id="DFtFKD0rhP5SAIbRIAtx-275" value="" style="shape=tableRow;horizontal=0;startSize=0;swimlaneHead=0;swimlaneBody=0;fillColor=none;collapsible=0;dropTarget=0;points=[[0,0.5],[1,0.5]];portConstraint=eastwest;top=0;left=0;right=0;bottom=0;" vertex="1" parent="DFtFKD0rhP5SAIbRIAtx-120">
          <mxGeometry y="210" width="180" height="30" as="geometry" />
        </mxCell>
        <mxCell id="DFtFKD0rhP5SAIbRIAtx-276" value="&lt;b&gt;FK&lt;/b&gt;" style="shape=partialRectangle;connectable=0;fillColor=none;top=0;left=0;bottom=0;right=0;editable=1;overflow=hidden;whiteSpace=wrap;html=1;" vertex="1" parent="DFtFKD0rhP5SAIbRIAtx-275">
          <mxGeometry width="30" height="30" as="geometry">
            <mxRectangle width="30" height="30" as="alternateBounds" />
          </mxGeometry>
        </mxCell>
        <mxCell id="DFtFKD0rhP5SAIbRIAtx-277" value="VideoID" style="shape=partialRectangle;connectable=0;fillColor=none;top=0;left=0;bottom=0;right=0;align=left;spacingLeft=6;overflow=hidden;whiteSpace=wrap;html=1;" vertex="1" parent="DFtFKD0rhP5SAIbRIAtx-275">
          <mxGeometry x="30" width="150" height="30" as="geometry">
            <mxRectangle width="150" height="30" as="alternateBounds" />
          </mxGeometry>
        </mxCell>
        <mxCell id="DFtFKD0rhP5SAIbRIAtx-133" value="SocialGraph" style="shape=table;startSize=30;container=1;collapsible=1;childLayout=tableLayout;fixedRows=1;rowLines=0;fontStyle=1;align=center;resizeLast=1;html=1;rounded=1;" vertex="1" parent="1">
          <mxGeometry x="-10" y="1781" width="180" height="180" as="geometry" />
        </mxCell>
        <mxCell id="DFtFKD0rhP5SAIbRIAtx-134" value="" style="shape=tableRow;horizontal=0;startSize=0;swimlaneHead=0;swimlaneBody=0;fillColor=none;collapsible=0;dropTarget=0;points=[[0,0.5],[1,0.5]];portConstraint=eastwest;top=0;left=0;right=0;bottom=1;" vertex="1" parent="DFtFKD0rhP5SAIbRIAtx-133">
          <mxGeometry y="30" width="180" height="30" as="geometry" />
        </mxCell>
        <mxCell id="DFtFKD0rhP5SAIbRIAtx-135" value="PK" style="shape=partialRectangle;connectable=0;fillColor=none;top=0;left=0;bottom=0;right=0;fontStyle=1;overflow=hidden;whiteSpace=wrap;html=1;" vertex="1" parent="DFtFKD0rhP5SAIbRIAtx-134">
          <mxGeometry width="30" height="30" as="geometry">
            <mxRectangle width="30" height="30" as="alternateBounds" />
          </mxGeometry>
        </mxCell>
        <object label="UserID INT" UserName="" id="DFtFKD0rhP5SAIbRIAtx-136">
          <mxCell style="shape=partialRectangle;connectable=0;fillColor=none;top=0;left=0;bottom=0;right=0;align=left;spacingLeft=6;fontStyle=5;overflow=hidden;whiteSpace=wrap;html=1;" vertex="1" parent="DFtFKD0rhP5SAIbRIAtx-134">
            <mxGeometry x="30" width="150" height="30" as="geometry">
              <mxRectangle width="150" height="30" as="alternateBounds" />
            </mxGeometry>
          </mxCell>
        </object>
        <mxCell id="DFtFKD0rhP5SAIbRIAtx-137" value="" style="shape=tableRow;horizontal=0;startSize=0;swimlaneHead=0;swimlaneBody=0;fillColor=none;collapsible=0;dropTarget=0;points=[[0,0.5],[1,0.5]];portConstraint=eastwest;top=0;left=0;right=0;bottom=0;" vertex="1" parent="DFtFKD0rhP5SAIbRIAtx-133">
          <mxGeometry y="60" width="180" height="30" as="geometry" />
        </mxCell>
        <mxCell id="DFtFKD0rhP5SAIbRIAtx-138" value="" style="shape=partialRectangle;connectable=0;fillColor=none;top=0;left=0;bottom=0;right=0;editable=1;overflow=hidden;whiteSpace=wrap;html=1;" vertex="1" parent="DFtFKD0rhP5SAIbRIAtx-137">
          <mxGeometry width="30" height="30" as="geometry">
            <mxRectangle width="30" height="30" as="alternateBounds" />
          </mxGeometry>
        </mxCell>
        <mxCell id="DFtFKD0rhP5SAIbRIAtx-139" value="FollowerID" style="shape=partialRectangle;connectable=0;fillColor=none;top=0;left=0;bottom=0;right=0;align=left;spacingLeft=6;overflow=hidden;whiteSpace=wrap;html=1;" vertex="1" parent="DFtFKD0rhP5SAIbRIAtx-137">
          <mxGeometry x="30" width="150" height="30" as="geometry">
            <mxRectangle width="150" height="30" as="alternateBounds" />
          </mxGeometry>
        </mxCell>
        <mxCell id="DFtFKD0rhP5SAIbRIAtx-140" value="" style="shape=tableRow;horizontal=0;startSize=0;swimlaneHead=0;swimlaneBody=0;fillColor=none;collapsible=0;dropTarget=0;points=[[0,0.5],[1,0.5]];portConstraint=eastwest;top=0;left=0;right=0;bottom=0;" vertex="1" parent="DFtFKD0rhP5SAIbRIAtx-133">
          <mxGeometry y="90" width="180" height="30" as="geometry" />
        </mxCell>
        <mxCell id="DFtFKD0rhP5SAIbRIAtx-141" value="" style="shape=partialRectangle;connectable=0;fillColor=none;top=0;left=0;bottom=0;right=0;editable=1;overflow=hidden;whiteSpace=wrap;html=1;" vertex="1" parent="DFtFKD0rhP5SAIbRIAtx-140">
          <mxGeometry width="30" height="30" as="geometry">
            <mxRectangle width="30" height="30" as="alternateBounds" />
          </mxGeometry>
        </mxCell>
        <mxCell id="DFtFKD0rhP5SAIbRIAtx-142" value="FollowingID" style="shape=partialRectangle;connectable=0;fillColor=none;top=0;left=0;bottom=0;right=0;align=left;spacingLeft=6;overflow=hidden;whiteSpace=wrap;html=1;" vertex="1" parent="DFtFKD0rhP5SAIbRIAtx-140">
          <mxGeometry x="30" width="150" height="30" as="geometry">
            <mxRectangle width="150" height="30" as="alternateBounds" />
          </mxGeometry>
        </mxCell>
        <mxCell id="DFtFKD0rhP5SAIbRIAtx-143" value="" style="shape=tableRow;horizontal=0;startSize=0;swimlaneHead=0;swimlaneBody=0;fillColor=none;collapsible=0;dropTarget=0;points=[[0,0.5],[1,0.5]];portConstraint=eastwest;top=0;left=0;right=0;bottom=0;" vertex="1" parent="DFtFKD0rhP5SAIbRIAtx-133">
          <mxGeometry y="120" width="180" height="30" as="geometry" />
        </mxCell>
        <mxCell id="DFtFKD0rhP5SAIbRIAtx-144" value="&lt;b&gt;FK&lt;/b&gt;" style="shape=partialRectangle;connectable=0;fillColor=none;top=0;left=0;bottom=0;right=0;editable=1;overflow=hidden;whiteSpace=wrap;html=1;" vertex="1" parent="DFtFKD0rhP5SAIbRIAtx-143">
          <mxGeometry width="30" height="30" as="geometry">
            <mxRectangle width="30" height="30" as="alternateBounds" />
          </mxGeometry>
        </mxCell>
        <mxCell id="DFtFKD0rhP5SAIbRIAtx-145" value="UserID" style="shape=partialRectangle;connectable=0;fillColor=none;top=0;left=0;bottom=0;right=0;align=left;spacingLeft=6;overflow=hidden;whiteSpace=wrap;html=1;" vertex="1" parent="DFtFKD0rhP5SAIbRIAtx-143">
          <mxGeometry x="30" width="150" height="30" as="geometry">
            <mxRectangle width="150" height="30" as="alternateBounds" />
          </mxGeometry>
        </mxCell>
        <mxCell id="DFtFKD0rhP5SAIbRIAtx-220" value="" style="shape=tableRow;horizontal=0;startSize=0;swimlaneHead=0;swimlaneBody=0;fillColor=none;collapsible=0;dropTarget=0;points=[[0,0.5],[1,0.5]];portConstraint=eastwest;top=0;left=0;right=0;bottom=0;" vertex="1" parent="DFtFKD0rhP5SAIbRIAtx-133">
          <mxGeometry y="150" width="180" height="30" as="geometry" />
        </mxCell>
        <mxCell id="DFtFKD0rhP5SAIbRIAtx-221" value="&lt;b&gt;FK&lt;/b&gt;" style="shape=partialRectangle;connectable=0;fillColor=none;top=0;left=0;bottom=0;right=0;editable=1;overflow=hidden;whiteSpace=wrap;html=1;" vertex="1" parent="DFtFKD0rhP5SAIbRIAtx-220">
          <mxGeometry width="30" height="30" as="geometry">
            <mxRectangle width="30" height="30" as="alternateBounds" />
          </mxGeometry>
        </mxCell>
        <mxCell id="DFtFKD0rhP5SAIbRIAtx-222" value="VideoID" style="shape=partialRectangle;connectable=0;fillColor=none;top=0;left=0;bottom=0;right=0;align=left;spacingLeft=6;overflow=hidden;whiteSpace=wrap;html=1;" vertex="1" parent="DFtFKD0rhP5SAIbRIAtx-220">
          <mxGeometry x="30" width="150" height="30" as="geometry">
            <mxRectangle width="150" height="30" as="alternateBounds" />
          </mxGeometry>
        </mxCell>
        <mxCell id="DFtFKD0rhP5SAIbRIAtx-146" value="Likes" style="shape=table;startSize=30;container=1;collapsible=1;childLayout=tableLayout;fixedRows=1;rowLines=0;fontStyle=1;align=center;resizeLast=1;html=1;rounded=1;" vertex="1" parent="1">
          <mxGeometry x="298" y="1783" width="180" height="150" as="geometry" />
        </mxCell>
        <mxCell id="DFtFKD0rhP5SAIbRIAtx-147" value="" style="shape=tableRow;horizontal=0;startSize=0;swimlaneHead=0;swimlaneBody=0;fillColor=none;collapsible=0;dropTarget=0;points=[[0,0.5],[1,0.5]];portConstraint=eastwest;top=0;left=0;right=0;bottom=1;" vertex="1" parent="DFtFKD0rhP5SAIbRIAtx-146">
          <mxGeometry y="30" width="180" height="30" as="geometry" />
        </mxCell>
        <mxCell id="DFtFKD0rhP5SAIbRIAtx-148" value="PK" style="shape=partialRectangle;connectable=0;fillColor=none;top=0;left=0;bottom=0;right=0;fontStyle=1;overflow=hidden;whiteSpace=wrap;html=1;" vertex="1" parent="DFtFKD0rhP5SAIbRIAtx-147">
          <mxGeometry width="30" height="30" as="geometry">
            <mxRectangle width="30" height="30" as="alternateBounds" />
          </mxGeometry>
        </mxCell>
        <object label="UniqueID" UserName="" id="DFtFKD0rhP5SAIbRIAtx-149">
          <mxCell style="shape=partialRectangle;connectable=0;fillColor=none;top=0;left=0;bottom=0;right=0;align=left;spacingLeft=6;fontStyle=5;overflow=hidden;whiteSpace=wrap;html=1;" vertex="1" parent="DFtFKD0rhP5SAIbRIAtx-147">
            <mxGeometry x="30" width="150" height="30" as="geometry">
              <mxRectangle width="150" height="30" as="alternateBounds" />
            </mxGeometry>
          </mxCell>
        </object>
        <mxCell id="DFtFKD0rhP5SAIbRIAtx-150" value="" style="shape=tableRow;horizontal=0;startSize=0;swimlaneHead=0;swimlaneBody=0;fillColor=none;collapsible=0;dropTarget=0;points=[[0,0.5],[1,0.5]];portConstraint=eastwest;top=0;left=0;right=0;bottom=0;" vertex="1" parent="DFtFKD0rhP5SAIbRIAtx-146">
          <mxGeometry y="60" width="180" height="30" as="geometry" />
        </mxCell>
        <mxCell id="DFtFKD0rhP5SAIbRIAtx-151" value="" style="shape=partialRectangle;connectable=0;fillColor=none;top=0;left=0;bottom=0;right=0;editable=1;overflow=hidden;whiteSpace=wrap;html=1;" vertex="1" parent="DFtFKD0rhP5SAIbRIAtx-150">
          <mxGeometry width="30" height="30" as="geometry">
            <mxRectangle width="30" height="30" as="alternateBounds" />
          </mxGeometry>
        </mxCell>
        <mxCell id="DFtFKD0rhP5SAIbRIAtx-152" value="Row 1" style="shape=partialRectangle;connectable=0;fillColor=none;top=0;left=0;bottom=0;right=0;align=left;spacingLeft=6;overflow=hidden;whiteSpace=wrap;html=1;" vertex="1" parent="DFtFKD0rhP5SAIbRIAtx-150">
          <mxGeometry x="30" width="150" height="30" as="geometry">
            <mxRectangle width="150" height="30" as="alternateBounds" />
          </mxGeometry>
        </mxCell>
        <mxCell id="DFtFKD0rhP5SAIbRIAtx-153" value="" style="shape=tableRow;horizontal=0;startSize=0;swimlaneHead=0;swimlaneBody=0;fillColor=none;collapsible=0;dropTarget=0;points=[[0,0.5],[1,0.5]];portConstraint=eastwest;top=0;left=0;right=0;bottom=0;" vertex="1" parent="DFtFKD0rhP5SAIbRIAtx-146">
          <mxGeometry y="90" width="180" height="30" as="geometry" />
        </mxCell>
        <mxCell id="DFtFKD0rhP5SAIbRIAtx-154" value="" style="shape=partialRectangle;connectable=0;fillColor=none;top=0;left=0;bottom=0;right=0;editable=1;overflow=hidden;whiteSpace=wrap;html=1;" vertex="1" parent="DFtFKD0rhP5SAIbRIAtx-153">
          <mxGeometry width="30" height="30" as="geometry">
            <mxRectangle width="30" height="30" as="alternateBounds" />
          </mxGeometry>
        </mxCell>
        <mxCell id="DFtFKD0rhP5SAIbRIAtx-155" value="Row 2" style="shape=partialRectangle;connectable=0;fillColor=none;top=0;left=0;bottom=0;right=0;align=left;spacingLeft=6;overflow=hidden;whiteSpace=wrap;html=1;" vertex="1" parent="DFtFKD0rhP5SAIbRIAtx-153">
          <mxGeometry x="30" width="150" height="30" as="geometry">
            <mxRectangle width="150" height="30" as="alternateBounds" />
          </mxGeometry>
        </mxCell>
        <mxCell id="DFtFKD0rhP5SAIbRIAtx-156" value="" style="shape=tableRow;horizontal=0;startSize=0;swimlaneHead=0;swimlaneBody=0;fillColor=none;collapsible=0;dropTarget=0;points=[[0,0.5],[1,0.5]];portConstraint=eastwest;top=0;left=0;right=0;bottom=0;" vertex="1" parent="DFtFKD0rhP5SAIbRIAtx-146">
          <mxGeometry y="120" width="180" height="30" as="geometry" />
        </mxCell>
        <mxCell id="DFtFKD0rhP5SAIbRIAtx-157" value="" style="shape=partialRectangle;connectable=0;fillColor=none;top=0;left=0;bottom=0;right=0;editable=1;overflow=hidden;whiteSpace=wrap;html=1;" vertex="1" parent="DFtFKD0rhP5SAIbRIAtx-156">
          <mxGeometry width="30" height="30" as="geometry">
            <mxRectangle width="30" height="30" as="alternateBounds" />
          </mxGeometry>
        </mxCell>
        <mxCell id="DFtFKD0rhP5SAIbRIAtx-158" value="Row 3" style="shape=partialRectangle;connectable=0;fillColor=none;top=0;left=0;bottom=0;right=0;align=left;spacingLeft=6;overflow=hidden;whiteSpace=wrap;html=1;" vertex="1" parent="DFtFKD0rhP5SAIbRIAtx-156">
          <mxGeometry x="30" width="150" height="30" as="geometry">
            <mxRectangle width="150" height="30" as="alternateBounds" />
          </mxGeometry>
        </mxCell>
        <mxCell id="DFtFKD0rhP5SAIbRIAtx-159" value="Video" style="shape=table;startSize=30;container=1;collapsible=1;childLayout=tableLayout;fixedRows=1;rowLines=0;fontStyle=1;align=center;resizeLast=1;html=1;rounded=1;" vertex="1" parent="1">
          <mxGeometry x="-5" y="1989" width="180" height="322" as="geometry" />
        </mxCell>
        <mxCell id="DFtFKD0rhP5SAIbRIAtx-160" value="" style="shape=tableRow;horizontal=0;startSize=0;swimlaneHead=0;swimlaneBody=0;fillColor=none;collapsible=0;dropTarget=0;points=[[0,0.5],[1,0.5]];portConstraint=eastwest;top=0;left=0;right=0;bottom=1;" vertex="1" parent="DFtFKD0rhP5SAIbRIAtx-159">
          <mxGeometry y="30" width="180" height="26" as="geometry" />
        </mxCell>
        <mxCell id="DFtFKD0rhP5SAIbRIAtx-161" value="PK" style="shape=partialRectangle;connectable=0;fillColor=none;top=0;left=0;bottom=0;right=0;fontStyle=1;overflow=hidden;whiteSpace=wrap;html=1;" vertex="1" parent="DFtFKD0rhP5SAIbRIAtx-160">
          <mxGeometry width="30" height="26" as="geometry">
            <mxRectangle width="30" height="26" as="alternateBounds" />
          </mxGeometry>
        </mxCell>
        <object label="VideoID" UserName="" id="DFtFKD0rhP5SAIbRIAtx-162">
          <mxCell style="shape=partialRectangle;connectable=0;fillColor=none;top=0;left=0;bottom=0;right=0;align=left;spacingLeft=6;fontStyle=5;overflow=hidden;whiteSpace=wrap;html=1;" vertex="1" parent="DFtFKD0rhP5SAIbRIAtx-160">
            <mxGeometry x="30" width="150" height="26" as="geometry">
              <mxRectangle width="150" height="26" as="alternateBounds" />
            </mxGeometry>
          </mxCell>
        </object>
        <mxCell id="DFtFKD0rhP5SAIbRIAtx-163" value="" style="shape=tableRow;horizontal=0;startSize=0;swimlaneHead=0;swimlaneBody=0;fillColor=none;collapsible=0;dropTarget=0;points=[[0,0.5],[1,0.5]];portConstraint=eastwest;top=0;left=0;right=0;bottom=0;" vertex="1" parent="DFtFKD0rhP5SAIbRIAtx-159">
          <mxGeometry y="56" width="180" height="30" as="geometry" />
        </mxCell>
        <mxCell id="DFtFKD0rhP5SAIbRIAtx-164" value="" style="shape=partialRectangle;connectable=0;fillColor=none;top=0;left=0;bottom=0;right=0;editable=1;overflow=hidden;whiteSpace=wrap;html=1;" vertex="1" parent="DFtFKD0rhP5SAIbRIAtx-163">
          <mxGeometry width="30" height="30" as="geometry">
            <mxRectangle width="30" height="30" as="alternateBounds" />
          </mxGeometry>
        </mxCell>
        <mxCell id="DFtFKD0rhP5SAIbRIAtx-165" value="UserID" style="shape=partialRectangle;connectable=0;fillColor=none;top=0;left=0;bottom=0;right=0;align=left;spacingLeft=6;overflow=hidden;whiteSpace=wrap;html=1;" vertex="1" parent="DFtFKD0rhP5SAIbRIAtx-163">
          <mxGeometry x="30" width="150" height="30" as="geometry">
            <mxRectangle width="150" height="30" as="alternateBounds" />
          </mxGeometry>
        </mxCell>
        <mxCell id="DFtFKD0rhP5SAIbRIAtx-166" value="" style="shape=tableRow;horizontal=0;startSize=0;swimlaneHead=0;swimlaneBody=0;fillColor=none;collapsible=0;dropTarget=0;points=[[0,0.5],[1,0.5]];portConstraint=eastwest;top=0;left=0;right=0;bottom=0;" vertex="1" parent="DFtFKD0rhP5SAIbRIAtx-159">
          <mxGeometry y="86" width="180" height="30" as="geometry" />
        </mxCell>
        <mxCell id="DFtFKD0rhP5SAIbRIAtx-167" value="" style="shape=partialRectangle;connectable=0;fillColor=none;top=0;left=0;bottom=0;right=0;editable=1;overflow=hidden;whiteSpace=wrap;html=1;" vertex="1" parent="DFtFKD0rhP5SAIbRIAtx-166">
          <mxGeometry width="30" height="30" as="geometry">
            <mxRectangle width="30" height="30" as="alternateBounds" />
          </mxGeometry>
        </mxCell>
        <mxCell id="DFtFKD0rhP5SAIbRIAtx-168" value="Title" style="shape=partialRectangle;connectable=0;fillColor=none;top=0;left=0;bottom=0;right=0;align=left;spacingLeft=6;overflow=hidden;whiteSpace=wrap;html=1;" vertex="1" parent="DFtFKD0rhP5SAIbRIAtx-166">
          <mxGeometry x="30" width="150" height="30" as="geometry">
            <mxRectangle width="150" height="30" as="alternateBounds" />
          </mxGeometry>
        </mxCell>
        <mxCell id="DFtFKD0rhP5SAIbRIAtx-169" value="" style="shape=tableRow;horizontal=0;startSize=0;swimlaneHead=0;swimlaneBody=0;fillColor=none;collapsible=0;dropTarget=0;points=[[0,0.5],[1,0.5]];portConstraint=eastwest;top=0;left=0;right=0;bottom=0;" vertex="1" parent="DFtFKD0rhP5SAIbRIAtx-159">
          <mxGeometry y="116" width="180" height="30" as="geometry" />
        </mxCell>
        <mxCell id="DFtFKD0rhP5SAIbRIAtx-170" value="" style="shape=partialRectangle;connectable=0;fillColor=none;top=0;left=0;bottom=0;right=0;editable=1;overflow=hidden;whiteSpace=wrap;html=1;" vertex="1" parent="DFtFKD0rhP5SAIbRIAtx-169">
          <mxGeometry width="30" height="30" as="geometry">
            <mxRectangle width="30" height="30" as="alternateBounds" />
          </mxGeometry>
        </mxCell>
        <mxCell id="DFtFKD0rhP5SAIbRIAtx-171" value="Description" style="shape=partialRectangle;connectable=0;fillColor=none;top=0;left=0;bottom=0;right=0;align=left;spacingLeft=6;overflow=hidden;whiteSpace=wrap;html=1;" vertex="1" parent="DFtFKD0rhP5SAIbRIAtx-169">
          <mxGeometry x="30" width="150" height="30" as="geometry">
            <mxRectangle width="150" height="30" as="alternateBounds" />
          </mxGeometry>
        </mxCell>
        <mxCell id="DFtFKD0rhP5SAIbRIAtx-226" value="" style="shape=tableRow;horizontal=0;startSize=0;swimlaneHead=0;swimlaneBody=0;fillColor=none;collapsible=0;dropTarget=0;points=[[0,0.5],[1,0.5]];portConstraint=eastwest;top=0;left=0;right=0;bottom=0;" vertex="1" parent="DFtFKD0rhP5SAIbRIAtx-159">
          <mxGeometry y="146" width="180" height="30" as="geometry" />
        </mxCell>
        <mxCell id="DFtFKD0rhP5SAIbRIAtx-227" value="" style="shape=partialRectangle;connectable=0;fillColor=none;top=0;left=0;bottom=0;right=0;editable=1;overflow=hidden;whiteSpace=wrap;html=1;" vertex="1" parent="DFtFKD0rhP5SAIbRIAtx-226">
          <mxGeometry width="30" height="30" as="geometry">
            <mxRectangle width="30" height="30" as="alternateBounds" />
          </mxGeometry>
        </mxCell>
        <mxCell id="DFtFKD0rhP5SAIbRIAtx-228" value="UploadDate" style="shape=partialRectangle;connectable=0;fillColor=none;top=0;left=0;bottom=0;right=0;align=left;spacingLeft=6;overflow=hidden;whiteSpace=wrap;html=1;" vertex="1" parent="DFtFKD0rhP5SAIbRIAtx-226">
          <mxGeometry x="30" width="150" height="30" as="geometry">
            <mxRectangle width="150" height="30" as="alternateBounds" />
          </mxGeometry>
        </mxCell>
        <mxCell id="DFtFKD0rhP5SAIbRIAtx-229" value="" style="shape=tableRow;horizontal=0;startSize=0;swimlaneHead=0;swimlaneBody=0;fillColor=none;collapsible=0;dropTarget=0;points=[[0,0.5],[1,0.5]];portConstraint=eastwest;top=0;left=0;right=0;bottom=0;" vertex="1" parent="DFtFKD0rhP5SAIbRIAtx-159">
          <mxGeometry y="176" width="180" height="30" as="geometry" />
        </mxCell>
        <mxCell id="DFtFKD0rhP5SAIbRIAtx-230" value="" style="shape=partialRectangle;connectable=0;fillColor=none;top=0;left=0;bottom=0;right=0;editable=1;overflow=hidden;whiteSpace=wrap;html=1;" vertex="1" parent="DFtFKD0rhP5SAIbRIAtx-229">
          <mxGeometry width="30" height="30" as="geometry">
            <mxRectangle width="30" height="30" as="alternateBounds" />
          </mxGeometry>
        </mxCell>
        <mxCell id="DFtFKD0rhP5SAIbRIAtx-231" value="ViewsCount" style="shape=partialRectangle;connectable=0;fillColor=none;top=0;left=0;bottom=0;right=0;align=left;spacingLeft=6;overflow=hidden;whiteSpace=wrap;html=1;" vertex="1" parent="DFtFKD0rhP5SAIbRIAtx-229">
          <mxGeometry x="30" width="150" height="30" as="geometry">
            <mxRectangle width="150" height="30" as="alternateBounds" />
          </mxGeometry>
        </mxCell>
        <mxCell id="DFtFKD0rhP5SAIbRIAtx-232" value="" style="shape=tableRow;horizontal=0;startSize=0;swimlaneHead=0;swimlaneBody=0;fillColor=none;collapsible=0;dropTarget=0;points=[[0,0.5],[1,0.5]];portConstraint=eastwest;top=0;left=0;right=0;bottom=0;" vertex="1" parent="DFtFKD0rhP5SAIbRIAtx-159">
          <mxGeometry y="206" width="180" height="30" as="geometry" />
        </mxCell>
        <mxCell id="DFtFKD0rhP5SAIbRIAtx-233" value="" style="shape=partialRectangle;connectable=0;fillColor=none;top=0;left=0;bottom=0;right=0;editable=1;overflow=hidden;whiteSpace=wrap;html=1;" vertex="1" parent="DFtFKD0rhP5SAIbRIAtx-232">
          <mxGeometry width="30" height="30" as="geometry">
            <mxRectangle width="30" height="30" as="alternateBounds" />
          </mxGeometry>
        </mxCell>
        <mxCell id="DFtFKD0rhP5SAIbRIAtx-234" value="Duration" style="shape=partialRectangle;connectable=0;fillColor=none;top=0;left=0;bottom=0;right=0;align=left;spacingLeft=6;overflow=hidden;whiteSpace=wrap;html=1;" vertex="1" parent="DFtFKD0rhP5SAIbRIAtx-232">
          <mxGeometry x="30" width="150" height="30" as="geometry">
            <mxRectangle width="150" height="30" as="alternateBounds" />
          </mxGeometry>
        </mxCell>
        <mxCell id="DFtFKD0rhP5SAIbRIAtx-235" value="" style="shape=tableRow;horizontal=0;startSize=0;swimlaneHead=0;swimlaneBody=0;fillColor=none;collapsible=0;dropTarget=0;points=[[0,0.5],[1,0.5]];portConstraint=eastwest;top=0;left=0;right=0;bottom=0;" vertex="1" parent="DFtFKD0rhP5SAIbRIAtx-159">
          <mxGeometry y="236" width="180" height="26" as="geometry" />
        </mxCell>
        <mxCell id="DFtFKD0rhP5SAIbRIAtx-236" value="&lt;b&gt;FK&lt;/b&gt;" style="shape=partialRectangle;connectable=0;fillColor=none;top=0;left=0;bottom=0;right=0;editable=1;overflow=hidden;whiteSpace=wrap;html=1;" vertex="1" parent="DFtFKD0rhP5SAIbRIAtx-235">
          <mxGeometry width="30" height="26" as="geometry">
            <mxRectangle width="30" height="26" as="alternateBounds" />
          </mxGeometry>
        </mxCell>
        <mxCell id="DFtFKD0rhP5SAIbRIAtx-237" value="LikeID" style="shape=partialRectangle;connectable=0;fillColor=none;top=0;left=0;bottom=0;right=0;align=left;spacingLeft=6;overflow=hidden;whiteSpace=wrap;html=1;" vertex="1" parent="DFtFKD0rhP5SAIbRIAtx-235">
          <mxGeometry x="30" width="150" height="26" as="geometry">
            <mxRectangle width="150" height="26" as="alternateBounds" />
          </mxGeometry>
        </mxCell>
        <mxCell id="DFtFKD0rhP5SAIbRIAtx-263" value="" style="shape=tableRow;horizontal=0;startSize=0;swimlaneHead=0;swimlaneBody=0;fillColor=none;collapsible=0;dropTarget=0;points=[[0,0.5],[1,0.5]];portConstraint=eastwest;top=0;left=0;right=0;bottom=0;" vertex="1" parent="DFtFKD0rhP5SAIbRIAtx-159">
          <mxGeometry y="262" width="180" height="30" as="geometry" />
        </mxCell>
        <mxCell id="DFtFKD0rhP5SAIbRIAtx-264" value="&lt;b&gt;FK&lt;/b&gt;" style="shape=partialRectangle;connectable=0;fillColor=none;top=0;left=0;bottom=0;right=0;editable=1;overflow=hidden;whiteSpace=wrap;html=1;" vertex="1" parent="DFtFKD0rhP5SAIbRIAtx-263">
          <mxGeometry width="30" height="30" as="geometry">
            <mxRectangle width="30" height="30" as="alternateBounds" />
          </mxGeometry>
        </mxCell>
        <mxCell id="DFtFKD0rhP5SAIbRIAtx-265" value="DislikeID" style="shape=partialRectangle;connectable=0;fillColor=none;top=0;left=0;bottom=0;right=0;align=left;spacingLeft=6;overflow=hidden;whiteSpace=wrap;html=1;" vertex="1" parent="DFtFKD0rhP5SAIbRIAtx-263">
          <mxGeometry x="30" width="150" height="30" as="geometry">
            <mxRectangle width="150" height="30" as="alternateBounds" />
          </mxGeometry>
        </mxCell>
        <mxCell id="DFtFKD0rhP5SAIbRIAtx-266" value="" style="shape=tableRow;horizontal=0;startSize=0;swimlaneHead=0;swimlaneBody=0;fillColor=none;collapsible=0;dropTarget=0;points=[[0,0.5],[1,0.5]];portConstraint=eastwest;top=0;left=0;right=0;bottom=0;" vertex="1" parent="DFtFKD0rhP5SAIbRIAtx-159">
          <mxGeometry y="292" width="180" height="30" as="geometry" />
        </mxCell>
        <mxCell id="DFtFKD0rhP5SAIbRIAtx-267" value="&lt;b&gt;FK&lt;/b&gt;" style="shape=partialRectangle;connectable=0;fillColor=none;top=0;left=0;bottom=0;right=0;editable=1;overflow=hidden;whiteSpace=wrap;html=1;" vertex="1" parent="DFtFKD0rhP5SAIbRIAtx-266">
          <mxGeometry width="30" height="30" as="geometry">
            <mxRectangle width="30" height="30" as="alternateBounds" />
          </mxGeometry>
        </mxCell>
        <mxCell id="DFtFKD0rhP5SAIbRIAtx-268" value="CommentID" style="shape=partialRectangle;connectable=0;fillColor=none;top=0;left=0;bottom=0;right=0;align=left;spacingLeft=6;overflow=hidden;whiteSpace=wrap;html=1;" vertex="1" parent="DFtFKD0rhP5SAIbRIAtx-266">
          <mxGeometry x="30" width="150" height="30" as="geometry">
            <mxRectangle width="150" height="30" as="alternateBounds" />
          </mxGeometry>
        </mxCell>
        <mxCell id="DFtFKD0rhP5SAIbRIAtx-172" value="Dislikes" style="shape=table;startSize=30;container=1;collapsible=1;childLayout=tableLayout;fixedRows=1;rowLines=0;fontStyle=1;align=center;resizeLast=1;html=1;rounded=1;" vertex="1" parent="1">
          <mxGeometry x="308" y="2000" width="180" height="150" as="geometry" />
        </mxCell>
        <mxCell id="DFtFKD0rhP5SAIbRIAtx-173" value="" style="shape=tableRow;horizontal=0;startSize=0;swimlaneHead=0;swimlaneBody=0;fillColor=none;collapsible=0;dropTarget=0;points=[[0,0.5],[1,0.5]];portConstraint=eastwest;top=0;left=0;right=0;bottom=1;" vertex="1" parent="DFtFKD0rhP5SAIbRIAtx-172">
          <mxGeometry y="30" width="180" height="30" as="geometry" />
        </mxCell>
        <mxCell id="DFtFKD0rhP5SAIbRIAtx-174" value="PK" style="shape=partialRectangle;connectable=0;fillColor=none;top=0;left=0;bottom=0;right=0;fontStyle=1;overflow=hidden;whiteSpace=wrap;html=1;" vertex="1" parent="DFtFKD0rhP5SAIbRIAtx-173">
          <mxGeometry width="30" height="30" as="geometry">
            <mxRectangle width="30" height="30" as="alternateBounds" />
          </mxGeometry>
        </mxCell>
        <object label="DislikeID" UserName="" id="DFtFKD0rhP5SAIbRIAtx-175">
          <mxCell style="shape=partialRectangle;connectable=0;fillColor=none;top=0;left=0;bottom=0;right=0;align=left;spacingLeft=6;fontStyle=5;overflow=hidden;whiteSpace=wrap;html=1;" vertex="1" parent="DFtFKD0rhP5SAIbRIAtx-173">
            <mxGeometry x="30" width="150" height="30" as="geometry">
              <mxRectangle width="150" height="30" as="alternateBounds" />
            </mxGeometry>
          </mxCell>
        </object>
        <mxCell id="DFtFKD0rhP5SAIbRIAtx-176" value="" style="shape=tableRow;horizontal=0;startSize=0;swimlaneHead=0;swimlaneBody=0;fillColor=none;collapsible=0;dropTarget=0;points=[[0,0.5],[1,0.5]];portConstraint=eastwest;top=0;left=0;right=0;bottom=0;" vertex="1" parent="DFtFKD0rhP5SAIbRIAtx-172">
          <mxGeometry y="60" width="180" height="30" as="geometry" />
        </mxCell>
        <mxCell id="DFtFKD0rhP5SAIbRIAtx-177" value="" style="shape=partialRectangle;connectable=0;fillColor=none;top=0;left=0;bottom=0;right=0;editable=1;overflow=hidden;whiteSpace=wrap;html=1;" vertex="1" parent="DFtFKD0rhP5SAIbRIAtx-176">
          <mxGeometry width="30" height="30" as="geometry">
            <mxRectangle width="30" height="30" as="alternateBounds" />
          </mxGeometry>
        </mxCell>
        <mxCell id="DFtFKD0rhP5SAIbRIAtx-178" value="UserID" style="shape=partialRectangle;connectable=0;fillColor=none;top=0;left=0;bottom=0;right=0;align=left;spacingLeft=6;overflow=hidden;whiteSpace=wrap;html=1;" vertex="1" parent="DFtFKD0rhP5SAIbRIAtx-176">
          <mxGeometry x="30" width="150" height="30" as="geometry">
            <mxRectangle width="150" height="30" as="alternateBounds" />
          </mxGeometry>
        </mxCell>
        <mxCell id="DFtFKD0rhP5SAIbRIAtx-179" value="" style="shape=tableRow;horizontal=0;startSize=0;swimlaneHead=0;swimlaneBody=0;fillColor=none;collapsible=0;dropTarget=0;points=[[0,0.5],[1,0.5]];portConstraint=eastwest;top=0;left=0;right=0;bottom=0;" vertex="1" parent="DFtFKD0rhP5SAIbRIAtx-172">
          <mxGeometry y="90" width="180" height="30" as="geometry" />
        </mxCell>
        <mxCell id="DFtFKD0rhP5SAIbRIAtx-180" value="" style="shape=partialRectangle;connectable=0;fillColor=none;top=0;left=0;bottom=0;right=0;editable=1;overflow=hidden;whiteSpace=wrap;html=1;" vertex="1" parent="DFtFKD0rhP5SAIbRIAtx-179">
          <mxGeometry width="30" height="30" as="geometry">
            <mxRectangle width="30" height="30" as="alternateBounds" />
          </mxGeometry>
        </mxCell>
        <mxCell id="DFtFKD0rhP5SAIbRIAtx-181" value="VideoID" style="shape=partialRectangle;connectable=0;fillColor=none;top=0;left=0;bottom=0;right=0;align=left;spacingLeft=6;overflow=hidden;whiteSpace=wrap;html=1;" vertex="1" parent="DFtFKD0rhP5SAIbRIAtx-179">
          <mxGeometry x="30" width="150" height="30" as="geometry">
            <mxRectangle width="150" height="30" as="alternateBounds" />
          </mxGeometry>
        </mxCell>
        <mxCell id="DFtFKD0rhP5SAIbRIAtx-182" value="" style="shape=tableRow;horizontal=0;startSize=0;swimlaneHead=0;swimlaneBody=0;fillColor=none;collapsible=0;dropTarget=0;points=[[0,0.5],[1,0.5]];portConstraint=eastwest;top=0;left=0;right=0;bottom=0;" vertex="1" parent="DFtFKD0rhP5SAIbRIAtx-172">
          <mxGeometry y="120" width="180" height="30" as="geometry" />
        </mxCell>
        <mxCell id="DFtFKD0rhP5SAIbRIAtx-183" value="" style="shape=partialRectangle;connectable=0;fillColor=none;top=0;left=0;bottom=0;right=0;editable=1;overflow=hidden;whiteSpace=wrap;html=1;" vertex="1" parent="DFtFKD0rhP5SAIbRIAtx-182">
          <mxGeometry width="30" height="30" as="geometry">
            <mxRectangle width="30" height="30" as="alternateBounds" />
          </mxGeometry>
        </mxCell>
        <mxCell id="DFtFKD0rhP5SAIbRIAtx-184" value="Timestamp" style="shape=partialRectangle;connectable=0;fillColor=none;top=0;left=0;bottom=0;right=0;align=left;spacingLeft=6;overflow=hidden;whiteSpace=wrap;html=1;" vertex="1" parent="DFtFKD0rhP5SAIbRIAtx-182">
          <mxGeometry x="30" width="150" height="30" as="geometry">
            <mxRectangle width="150" height="30" as="alternateBounds" />
          </mxGeometry>
        </mxCell>
        <mxCell id="DFtFKD0rhP5SAIbRIAtx-198" value="Comments" style="shape=table;startSize=30;container=1;collapsible=1;childLayout=tableLayout;fixedRows=1;rowLines=0;fontStyle=1;align=center;resizeLast=1;html=1;rounded=1;" vertex="1" parent="1">
          <mxGeometry x="308" y="2230" width="180" height="180" as="geometry" />
        </mxCell>
        <mxCell id="DFtFKD0rhP5SAIbRIAtx-199" value="" style="shape=tableRow;horizontal=0;startSize=0;swimlaneHead=0;swimlaneBody=0;fillColor=none;collapsible=0;dropTarget=0;points=[[0,0.5],[1,0.5]];portConstraint=eastwest;top=0;left=0;right=0;bottom=1;" vertex="1" parent="DFtFKD0rhP5SAIbRIAtx-198">
          <mxGeometry y="30" width="180" height="30" as="geometry" />
        </mxCell>
        <mxCell id="DFtFKD0rhP5SAIbRIAtx-200" value="PK" style="shape=partialRectangle;connectable=0;fillColor=none;top=0;left=0;bottom=0;right=0;fontStyle=1;overflow=hidden;whiteSpace=wrap;html=1;" vertex="1" parent="DFtFKD0rhP5SAIbRIAtx-199">
          <mxGeometry width="30" height="30" as="geometry">
            <mxRectangle width="30" height="30" as="alternateBounds" />
          </mxGeometry>
        </mxCell>
        <object label="CommentsID" UserName="" id="DFtFKD0rhP5SAIbRIAtx-201">
          <mxCell style="shape=partialRectangle;connectable=0;fillColor=none;top=0;left=0;bottom=0;right=0;align=left;spacingLeft=6;fontStyle=5;overflow=hidden;whiteSpace=wrap;html=1;" vertex="1" parent="DFtFKD0rhP5SAIbRIAtx-199">
            <mxGeometry x="30" width="150" height="30" as="geometry">
              <mxRectangle width="150" height="30" as="alternateBounds" />
            </mxGeometry>
          </mxCell>
        </object>
        <mxCell id="DFtFKD0rhP5SAIbRIAtx-202" value="" style="shape=tableRow;horizontal=0;startSize=0;swimlaneHead=0;swimlaneBody=0;fillColor=none;collapsible=0;dropTarget=0;points=[[0,0.5],[1,0.5]];portConstraint=eastwest;top=0;left=0;right=0;bottom=0;" vertex="1" parent="DFtFKD0rhP5SAIbRIAtx-198">
          <mxGeometry y="60" width="180" height="30" as="geometry" />
        </mxCell>
        <mxCell id="DFtFKD0rhP5SAIbRIAtx-203" value="" style="shape=partialRectangle;connectable=0;fillColor=none;top=0;left=0;bottom=0;right=0;editable=1;overflow=hidden;whiteSpace=wrap;html=1;" vertex="1" parent="DFtFKD0rhP5SAIbRIAtx-202">
          <mxGeometry width="30" height="30" as="geometry">
            <mxRectangle width="30" height="30" as="alternateBounds" />
          </mxGeometry>
        </mxCell>
        <mxCell id="DFtFKD0rhP5SAIbRIAtx-204" value="UserID" style="shape=partialRectangle;connectable=0;fillColor=none;top=0;left=0;bottom=0;right=0;align=left;spacingLeft=6;overflow=hidden;whiteSpace=wrap;html=1;" vertex="1" parent="DFtFKD0rhP5SAIbRIAtx-202">
          <mxGeometry x="30" width="150" height="30" as="geometry">
            <mxRectangle width="150" height="30" as="alternateBounds" />
          </mxGeometry>
        </mxCell>
        <mxCell id="DFtFKD0rhP5SAIbRIAtx-205" value="" style="shape=tableRow;horizontal=0;startSize=0;swimlaneHead=0;swimlaneBody=0;fillColor=none;collapsible=0;dropTarget=0;points=[[0,0.5],[1,0.5]];portConstraint=eastwest;top=0;left=0;right=0;bottom=0;" vertex="1" parent="DFtFKD0rhP5SAIbRIAtx-198">
          <mxGeometry y="90" width="180" height="30" as="geometry" />
        </mxCell>
        <mxCell id="DFtFKD0rhP5SAIbRIAtx-206" value="" style="shape=partialRectangle;connectable=0;fillColor=none;top=0;left=0;bottom=0;right=0;editable=1;overflow=hidden;whiteSpace=wrap;html=1;" vertex="1" parent="DFtFKD0rhP5SAIbRIAtx-205">
          <mxGeometry width="30" height="30" as="geometry">
            <mxRectangle width="30" height="30" as="alternateBounds" />
          </mxGeometry>
        </mxCell>
        <mxCell id="DFtFKD0rhP5SAIbRIAtx-207" value="VideoID" style="shape=partialRectangle;connectable=0;fillColor=none;top=0;left=0;bottom=0;right=0;align=left;spacingLeft=6;overflow=hidden;whiteSpace=wrap;html=1;" vertex="1" parent="DFtFKD0rhP5SAIbRIAtx-205">
          <mxGeometry x="30" width="150" height="30" as="geometry">
            <mxRectangle width="150" height="30" as="alternateBounds" />
          </mxGeometry>
        </mxCell>
        <mxCell id="DFtFKD0rhP5SAIbRIAtx-208" value="" style="shape=tableRow;horizontal=0;startSize=0;swimlaneHead=0;swimlaneBody=0;fillColor=none;collapsible=0;dropTarget=0;points=[[0,0.5],[1,0.5]];portConstraint=eastwest;top=0;left=0;right=0;bottom=0;" vertex="1" parent="DFtFKD0rhP5SAIbRIAtx-198">
          <mxGeometry y="120" width="180" height="30" as="geometry" />
        </mxCell>
        <mxCell id="DFtFKD0rhP5SAIbRIAtx-209" value="" style="shape=partialRectangle;connectable=0;fillColor=none;top=0;left=0;bottom=0;right=0;editable=1;overflow=hidden;whiteSpace=wrap;html=1;" vertex="1" parent="DFtFKD0rhP5SAIbRIAtx-208">
          <mxGeometry width="30" height="30" as="geometry">
            <mxRectangle width="30" height="30" as="alternateBounds" />
          </mxGeometry>
        </mxCell>
        <mxCell id="DFtFKD0rhP5SAIbRIAtx-210" value="CommentText" style="shape=partialRectangle;connectable=0;fillColor=none;top=0;left=0;bottom=0;right=0;align=left;spacingLeft=6;overflow=hidden;whiteSpace=wrap;html=1;" vertex="1" parent="DFtFKD0rhP5SAIbRIAtx-208">
          <mxGeometry x="30" width="150" height="30" as="geometry">
            <mxRectangle width="150" height="30" as="alternateBounds" />
          </mxGeometry>
        </mxCell>
        <mxCell id="DFtFKD0rhP5SAIbRIAtx-223" value="" style="shape=tableRow;horizontal=0;startSize=0;swimlaneHead=0;swimlaneBody=0;fillColor=none;collapsible=0;dropTarget=0;points=[[0,0.5],[1,0.5]];portConstraint=eastwest;top=0;left=0;right=0;bottom=0;" vertex="1" parent="DFtFKD0rhP5SAIbRIAtx-198">
          <mxGeometry y="150" width="180" height="30" as="geometry" />
        </mxCell>
        <mxCell id="DFtFKD0rhP5SAIbRIAtx-224" value="" style="shape=partialRectangle;connectable=0;fillColor=none;top=0;left=0;bottom=0;right=0;editable=1;overflow=hidden;whiteSpace=wrap;html=1;" vertex="1" parent="DFtFKD0rhP5SAIbRIAtx-223">
          <mxGeometry width="30" height="30" as="geometry">
            <mxRectangle width="30" height="30" as="alternateBounds" />
          </mxGeometry>
        </mxCell>
        <mxCell id="DFtFKD0rhP5SAIbRIAtx-225" value="Timestamp" style="shape=partialRectangle;connectable=0;fillColor=none;top=0;left=0;bottom=0;right=0;align=left;spacingLeft=6;overflow=hidden;whiteSpace=wrap;html=1;" vertex="1" parent="DFtFKD0rhP5SAIbRIAtx-223">
          <mxGeometry x="30" width="150" height="30" as="geometry">
            <mxRectangle width="150" height="30" as="alternateBounds" />
          </mxGeometry>
        </mxCell>
        <mxCell id="DFtFKD0rhP5SAIbRIAtx-279" value="" style="edgeStyle=entityRelationEdgeStyle;fontSize=12;html=1;endArrow=ERmandOne;startArrow=ERmandOne;rounded=0;entryX=0;entryY=0.5;entryDx=0;entryDy=0;" edge="1" parent="1" target="DFtFKD0rhP5SAIbRIAtx-160">
          <mxGeometry width="100" height="100" relative="1" as="geometry">
            <mxPoint x="-82" y="2306" as="sourcePoint" />
            <mxPoint x="18" y="2206" as="targetPoint" />
          </mxGeometry>
        </mxCell>
        <mxCell id="DFtFKD0rhP5SAIbRIAtx-280" value="" style="edgeStyle=entityRelationEdgeStyle;fontSize=12;html=1;endArrow=ERmandOne;startArrow=ERmandOne;rounded=0;entryX=0;entryY=0.5;entryDx=0;entryDy=0;" edge="1" parent="1" target="DFtFKD0rhP5SAIbRIAtx-173">
          <mxGeometry width="100" height="100" relative="1" as="geometry">
            <mxPoint x="169.45999999999998" y="2263" as="sourcePoint" />
            <mxPoint x="269.46" y="2163" as="targetPoint" />
          </mxGeometry>
        </mxCell>
        <mxCell id="DFtFKD0rhP5SAIbRIAtx-281" value="" style="edgeStyle=entityRelationEdgeStyle;fontSize=12;html=1;endArrow=ERmandOne;startArrow=ERmandOne;rounded=0;entryX=0;entryY=0.5;entryDx=0;entryDy=0;" edge="1" parent="1" target="DFtFKD0rhP5SAIbRIAtx-199">
          <mxGeometry width="100" height="100" relative="1" as="geometry">
            <mxPoint x="175" y="2289" as="sourcePoint" />
            <mxPoint x="275" y="2189" as="targetPoint" />
          </mxGeometry>
        </mxCell>
        <mxCell id="DFtFKD0rhP5SAIbRIAtx-282" value="" style="edgeStyle=entityRelationEdgeStyle;fontSize=12;html=1;endArrow=ERmandOne;startArrow=ERmandOne;rounded=0;entryX=0;entryY=0.5;entryDx=0;entryDy=0;" edge="1" parent="1" target="DFtFKD0rhP5SAIbRIAtx-147">
          <mxGeometry width="100" height="100" relative="1" as="geometry">
            <mxPoint x="175" y="2230" as="sourcePoint" />
            <mxPoint x="275" y="2130" as="targetPoint" />
          </mxGeometry>
        </mxCell>
        <mxCell id="DFtFKD0rhP5SAIbRIAtx-283" value="" style="edgeStyle=entityRelationEdgeStyle;fontSize=12;html=1;endArrow=ERmandOne;startArrow=ERmandOne;rounded=0;entryX=0;entryY=0.5;entryDx=0;entryDy=0;" edge="1" parent="1" target="DFtFKD0rhP5SAIbRIAtx-160">
          <mxGeometry width="100" height="100" relative="1" as="geometry">
            <mxPoint x="-80" y="2004" as="sourcePoint" />
            <mxPoint x="20" y="1904" as="targetPoint" />
          </mxGeometry>
        </mxCell>
        <mxCell id="DFtFKD0rhP5SAIbRIAtx-284" value="&lt;div&gt;Endpoints:&lt;/div&gt;&lt;div&gt;&lt;br&gt;&lt;/div&gt;&lt;br&gt;&lt;br&gt;&lt;div&gt;&#39;POST /api/user/register&#39;&lt;/div&gt;&lt;div&gt;&lt;br&gt;&lt;/div&gt;&lt;div&gt;post api/user/login&lt;/div&gt;&lt;div&gt;&lt;br&gt;&lt;/div&gt;&lt;div&gt;post api/video/upload&lt;/div&gt;&lt;div&gt;&lt;br&gt;&lt;/div&gt;&lt;div&gt;post api/videos/{videoID}/like&lt;/div&gt;&lt;div&gt;&lt;br&gt;post api/videos/{videoID}/dislike&lt;/div&gt;&lt;div&gt;&lt;br&gt;&lt;/div&gt;&lt;div&gt;&lt;br&gt;&lt;/div&gt;" style="rounded=0;whiteSpace=wrap;html=1;" vertex="1" parent="1">
          <mxGeometry x="-288" y="2515" width="629" height="371" as="geometry" />
        </mxCell>
      </root>
    </mxGraphModel>
  </diagram>
  <diagram id="HyA077ripCvpnm9bfFmW" name="Elevator System - HLD">
    <mxGraphModel dx="956" dy="795" grid="1" gridSize="10" guides="1" tooltips="1" connect="1" arrows="1" fold="1" page="1" pageScale="1" pageWidth="850" pageHeight="1100" math="0" shadow="0">
      <root>
        <mxCell id="0" />
        <mxCell id="1" parent="0" />
      </root>
    </mxGraphModel>
  </diagram>
  <diagram id="7delGx_2zckZn6QJnQAb" name="decorator design pattern">
    <mxGraphModel dx="1674" dy="769" grid="1" gridSize="10" guides="1" tooltips="1" connect="1" arrows="1" fold="1" page="1" pageScale="1" pageWidth="850" pageHeight="1100" math="0" shadow="0">
      <root>
        <mxCell id="0" />
        <mxCell id="1" parent="0" />
        <mxCell id="GgJ45sY2QqiO54hteY5j-2" value="&lt;p style=&quot;margin:0px;margin-top:4px;text-align:center;&quot;&gt;&lt;i&gt;&amp;lt;&amp;lt;Interface&amp;gt;&amp;gt;&lt;/i&gt;&lt;br&gt;&lt;b&gt;Pizza&lt;/b&gt;&lt;/p&gt;&lt;p style=&quot;margin:0px;margin-top:4px;text-align:center;&quot;&gt;(from decorator)&lt;br&gt;&lt;/p&gt;&lt;hr size=&quot;1&quot; style=&quot;border-style:solid;&quot;&gt;&lt;p style=&quot;margin:0px;margin-left:4px;&quot;&gt;+ Pizza&lt;br&gt;+ make(): String [0...1]&lt;br&gt;&lt;/p&gt;" style="verticalAlign=top;align=left;overflow=fill;html=1;whiteSpace=wrap;" vertex="1" parent="1">
          <mxGeometry x="270" y="130" width="190" height="110" as="geometry" />
        </mxCell>
        <mxCell id="GgJ45sY2QqiO54hteY5j-3" value="Classname" style="swimlane;fontStyle=0;childLayout=stackLayout;horizontal=1;startSize=26;fillColor=none;horizontalStack=0;resizeParent=1;resizeParentMax=0;resizeLast=0;collapsible=1;marginBottom=0;whiteSpace=wrap;html=1;" vertex="1" parent="1">
          <mxGeometry x="170" y="330" width="140" height="104" as="geometry" />
        </mxCell>
        <mxCell id="GgJ45sY2QqiO54hteY5j-4" value="+ field: type" style="text;strokeColor=none;fillColor=none;align=left;verticalAlign=top;spacingLeft=4;spacingRight=4;overflow=hidden;rotatable=0;points=[[0,0.5],[1,0.5]];portConstraint=eastwest;whiteSpace=wrap;html=1;" vertex="1" parent="GgJ45sY2QqiO54hteY5j-3">
          <mxGeometry y="26" width="140" height="26" as="geometry" />
        </mxCell>
        <mxCell id="GgJ45sY2QqiO54hteY5j-5" value="+ field: type" style="text;strokeColor=none;fillColor=none;align=left;verticalAlign=top;spacingLeft=4;spacingRight=4;overflow=hidden;rotatable=0;points=[[0,0.5],[1,0.5]];portConstraint=eastwest;whiteSpace=wrap;html=1;" vertex="1" parent="GgJ45sY2QqiO54hteY5j-3">
          <mxGeometry y="52" width="140" height="26" as="geometry" />
        </mxCell>
        <mxCell id="GgJ45sY2QqiO54hteY5j-6" value="+ field: type" style="text;strokeColor=none;fillColor=none;align=left;verticalAlign=top;spacingLeft=4;spacingRight=4;overflow=hidden;rotatable=0;points=[[0,0.5],[1,0.5]];portConstraint=eastwest;whiteSpace=wrap;html=1;" vertex="1" parent="GgJ45sY2QqiO54hteY5j-3">
          <mxGeometry y="78" width="140" height="26" as="geometry" />
        </mxCell>
      </root>
    </mxGraphModel>
  </diagram>
</mxfile>
